<svg width="48" height="67" viewBox="0 0 48 67" fill="none" xmlns="http://www.w3.org/2000/svg">
<path d="M46.5 14.8693V62.9987C46.5 64.3787 45.4364 65.5 44.1273 65.5H3.87273C2.56364 65.5 1.5 64.3787 1.5 62.9987V4.00135C1.5 2.62129 2.56364 1.5 3.87273 1.5H33.6545L46.5 14.8693Z" stroke="#222B54" stroke-width="2.5" stroke-miterlimit="10"/>
<path d="M46.3342 14.8693H38.9705C36.0251 14.8693 33.6523 12.3679 33.6523 9.2628V1.5" stroke="#222B54" stroke-width="2" stroke-miterlimit="10"/>
<path d="M27.1892 23.1495H40.1983" stroke="#222B54" stroke-width="2" stroke-miterlimit="10" stroke-linecap="round" stroke-linejoin="round"/>
<path d="M27.1892 26.9448H40.1983" stroke="#222B54" stroke-width="2" stroke-miterlimit="10" stroke-linecap="round" stroke-linejoin="round"/>
<path d="M27.1892 30.7398H40.1983" stroke="#222B54" stroke-width="2" stroke-miterlimit="10" stroke-linecap="round" stroke-linejoin="round"/>
<path d="M18.6002 24.7022C18.6002 28.4974 15.6547 31.6025 12.0547 31.6025C8.45473 31.6025 5.50928 28.4974 5.50928 24.7022C5.50928 20.9071 8.45473 17.8019 12.0547 17.8019V24.7022H18.6002Z" stroke="#222B54" stroke-width="2" stroke-miterlimit="10" stroke-linecap="round" stroke-linejoin="round"/>
<path d="M14.6716 21.5107V14.6105C18.2716 14.6105 21.2171 17.7156 21.2171 21.5107H14.6716Z" stroke="#222B54" stroke-width="2" stroke-miterlimit="10" stroke-linecap="round" stroke-linejoin="round"/>
<path d="M25.5552 40.8315V54.6321H41.9188" stroke="#222B54" stroke-width="2" stroke-miterlimit="10" stroke-linecap="round" stroke-linejoin="round"/>
<path d="M38.3201 43.7641V54.5457" stroke="#222B54" stroke-width="2" stroke-miterlimit="10" stroke-linecap="round" stroke-linejoin="round"/>
<path d="M33.6555 47.128V54.5458" stroke="#222B54" stroke-width="2" stroke-miterlimit="10" stroke-linecap="round" stroke-linejoin="round"/>
<path d="M28.9912 50.1468V54.5457" stroke="#222B54" stroke-width="2" stroke-miterlimit="10" stroke-linecap="round" stroke-linejoin="round"/>
<path d="M6.3269 47.0417H19.336" stroke="#222B54" stroke-width="2" stroke-miterlimit="10" stroke-linecap="round" stroke-linejoin="round"/>
<path d="M6.3269 50.837H19.336" stroke="#222B54" stroke-width="2" stroke-miterlimit="10" stroke-linecap="round" stroke-linejoin="round"/>
<path d="M6.3269 54.5458H19.336" stroke="#222B54" stroke-width="2" stroke-miterlimit="10" stroke-linecap="round" stroke-linejoin="round"/>
</svg>
