<svg width="61" height="65" viewBox="0 0 61 65" fill="none" xmlns="http://www.w3.org/2000/svg">
<path d="M3.81575 20.4519C5.59236 20.6773 7.88715 21.128 10.256 21.2032C12.6248 21.2783 14.9195 21.6539 17.2143 21.8042C19.6572 21.9544 22.174 22.2549 24.6169 22.0296C28.2441 21.7291 31.8713 21.5788 35.4986 21.128C38.0895 20.8275 40.6803 20.527 43.3453 20.4519C45.9361 20.3768 46.8244 22.1047 46.1582 24.2834C45.0478 28.0398 43.7154 31.721 42.531 35.4023C42.1608 36.6043 42.0128 37.8815 41.2725 38.9333C41.0505 39.2338 41.3466 39.5343 41.5686 39.8348C44.0115 42.5394 44.9738 45.7699 44.8258 49.376C44.8258 49.7517 44.8998 50.0522 45.1219 50.4278C47.4166 53.2827 46.7504 55.7619 43.3453 56.8888C41.5686 57.4898 39.792 57.1142 38.5336 55.6867C37.6453 54.7101 37.2012 54.635 36.2388 55.6116C34.6103 57.4147 31.8713 57.6401 30.0207 56.5131C29.8727 56.438 29.7246 56.3629 29.5766 56.2126C28.9844 55.7619 28.7623 54.635 28.022 54.635C27.4298 54.7101 26.9857 55.5365 26.3935 56.0624C24.6168 57.6401 20.7675 57.3396 19.3611 55.3111C18.8429 54.5598 18.5468 54.5598 17.9546 55.3862C16.4 57.4898 12.6248 58.2411 10.7741 55.837L10.7001 55.7619C9.44168 54.4847 9.51571 54.5598 8.18326 55.9121C7.07288 57.039 5.6664 57.4898 4.03784 57.2644C1.96513 56.8888 0.558659 55.7619 0.0404828 53.6583C-0.181593 52.6065 0.558655 51.7801 1.07683 50.9537C1.44696 50.4278 1.59499 49.9019 1.59499 49.3009C1.66902 45.845 2.63136 42.7648 4.77809 40.0602C5.22225 39.5343 5.22224 39.0835 5.00016 38.4074C3.81576 34.9515 2.70539 31.5708 1.52099 28.1149C1.15086 26.9129 0.780735 25.6357 0.410609 24.4336C-0.403669 21.8793 0.558641 20.527 3.81575 20.4519ZM4.33394 22.5555C1.81708 22.5555 1.74305 22.6306 2.33525 24.1331C4.18588 28.9413 5.59237 33.9749 7.29495 38.8582C7.59105 39.6094 7.443 40.1353 6.92482 40.7363C4.55601 43.2156 3.59368 46.2207 3.81575 49.6765C3.88978 50.4278 3.66771 50.9537 3.14953 51.5547C1.66902 53.2075 1.81709 54.0339 3.74175 55.0106C4.63005 55.4614 5.59236 55.0857 6.40664 54.5598C7.29494 53.9588 7.81312 53.0573 8.40533 52.2309C8.99753 51.3293 9.66376 51.3293 10.33 52.2309C10.7001 52.7568 11.1443 53.3578 11.5884 53.8837C13.1429 55.6867 14.9195 55.5365 16.4741 53.8837C16.9182 53.3578 17.2884 52.7568 17.7325 52.2309C18.3987 51.3293 19.139 51.2542 19.7312 52.2309C20.1753 52.9822 20.6935 53.6583 21.2857 54.2593C22.6182 55.4614 23.9506 55.5365 25.2831 54.3344C25.7272 53.8837 26.1714 53.4329 26.5415 52.907C27.874 51.0288 28.022 51.0288 29.3545 52.9822C29.9467 53.8086 30.6129 54.5598 31.5012 55.0106C31.8713 55.236 32.1674 55.236 32.6856 55.1609C34.1661 55.0106 35.0544 54.0339 35.7947 52.9822C37.1271 51.104 37.3492 51.104 38.6076 52.907C39.1258 53.6583 39.792 54.4096 40.6063 54.8603C41.5686 55.3862 43.0491 55.0106 44.0115 53.8086C44.8258 52.8319 43.8634 52.2309 43.4193 51.705C42.753 50.9537 42.605 50.2776 42.679 49.376C42.753 46.2958 42.0868 43.3658 39.8661 41.0369C39.0518 40.2105 38.8297 39.4592 39.3479 38.4074C39.4959 38.0318 39.5699 37.6561 39.718 37.2805C41.1245 32.8479 42.605 28.4905 44.0115 24.058C44.4556 22.7057 44.3076 22.5555 42.9751 22.5555C42.3829 22.5555 41.7907 22.4803 41.1985 22.6306C37.4232 23.3067 33.6479 23.3819 29.8726 23.8326C24.6909 24.3585 19.4351 24.2083 14.2533 23.6072C12.9949 23.457 11.7365 23.457 10.404 23.3067C8.18326 23.0814 5.96249 22.7808 4.33394 22.5555Z" fill="#222B54"/>
<path d="M30.761 17.597C26.6156 17.597 24.2468 14.4416 25.1351 10.3847C26.3195 4.97555 29.9467 2.04557 34.9064 0.693272C38.4596 -0.283387 41.4207 2.57146 41.7168 6.32785C42.0129 10.1594 38.1635 15.1178 34.7584 16.5452C33.3519 17.0711 32.0935 17.8975 30.761 17.597ZM39.57 6.62836C39.57 4.52478 38.9038 3.24761 37.5713 3.02223C36.1649 2.79685 34.6844 2.72172 33.2779 3.39787C30.0208 5.05067 27.8 7.45476 27.1338 11.2111C26.6156 14.1411 28.8364 16.3198 31.6493 15.6437C33.2779 15.268 34.6103 14.5168 35.7947 13.5401C37.9415 11.8122 39.57 9.63346 39.57 6.62836Z" fill="#222B54"/>
<path d="M11.1425 10.0843C7.73735 9.63355 5.66463 13.5402 6.55293 16.6204C6.62696 16.9961 6.77501 17.3717 6.92306 17.7473C7.51526 18.7991 6.55293 18.7991 6.03475 19.0996C5.2945 19.5504 5.22048 18.9494 4.9984 18.4235C4.33217 16.4702 4.03608 14.5168 4.77633 12.4133C5.88671 9.40817 8.62565 7.90562 11.8087 8.131C14.9178 8.35638 17.4347 9.63355 19.6554 11.4366C22.0982 13.3148 23.6528 15.9443 24.5411 19.0245C24.6891 19.5504 24.245 19.7007 23.8748 19.8509C23.3567 20.0763 22.9125 20.0763 22.7645 19.4753C22.2463 17.4468 21.0619 15.7189 19.7294 14.2915C18.0268 12.4133 16.0282 10.9107 13.5113 10.46C12.697 10.1594 11.8828 9.78381 11.1425 10.0843Z" fill="#222B54"/>
<path d="M18.8422 15.4934C18.8422 15.9442 18.6201 16.2447 18.324 16.4701C17.1396 17.597 16.0292 18.799 14.8448 20.0011C14.3267 20.527 13.8085 20.8275 13.2163 20.2265C12.5501 19.5503 12.9202 19.0244 13.4383 18.4985C14.6228 17.2965 15.8072 16.0945 16.9916 14.8924C17.3617 14.5168 17.7318 14.2914 18.25 14.5168C18.6201 14.7422 18.8422 15.0427 18.8422 15.4934Z" fill="#222B54"/>
<path d="M13.3648 12.4131C14.4012 12.4131 14.6973 13.0142 14.1791 13.7654C13.0687 15.3431 11.6623 16.6203 10.2558 17.8223C9.95967 18.1228 9.36746 18.4234 8.99733 17.9726C8.70123 17.597 8.40515 16.9959 8.8493 16.5452C10.1077 15.1929 11.4402 13.9157 12.7726 12.5634C12.9207 12.4131 13.2908 12.4131 13.3648 12.4131Z" fill="#222B54"/>
<path d="M23.5801 43.4409C20.471 43.4409 17.8801 43.0652 15.4373 41.8632C14.8451 41.5627 14.1789 41.2622 13.6607 40.8114C8.99711 37.3555 9.29319 33.1484 13.8087 29.993C17.1399 27.6641 20.9892 27.2133 24.9865 27.6641C27.3554 27.8894 29.5761 28.2651 31.5748 29.4671C34.0176 30.8194 35.8683 32.6225 35.7202 35.7778C35.6462 37.7312 34.6098 39.1586 33.2034 40.2855C30.2423 42.6896 26.7632 43.3657 23.5801 43.4409ZM22.3216 41.3373C23.432 41.4875 24.4684 41.187 25.5047 41.1119C27.7255 40.9617 29.7982 40.2855 31.6488 38.9332C34.4618 36.9048 34.4618 33.8997 31.5748 31.8712C27.0593 28.7158 19.0645 28.8661 14.9191 31.721C11.4399 34.125 11.514 36.6794 14.9191 39.0835C17.0658 40.7363 19.6567 41.2622 22.3216 41.3373Z" fill="#222B54"/>
<path d="M17.288 49.7516C13.8828 49.7516 10.4777 49.7516 6.99847 49.7516C6.1842 49.7516 6.03613 49.4511 6.03613 48.6999C6.03613 47.9486 6.1842 47.6481 6.99847 47.6481C13.9568 47.6481 20.8412 47.7232 27.7996 47.6481C28.6879 47.6481 28.7619 47.9486 28.7619 48.6999C28.7619 49.4511 28.6138 49.7516 27.7996 49.7516C24.3204 49.7516 20.8412 49.7516 17.288 49.7516Z" fill="#222B54"/>
<path d="M35.8668 47.7232C36.385 47.7232 36.9772 47.7983 37.4954 47.7232C38.6057 47.5729 38.9019 48.0988 38.7538 49.0755C38.6798 49.5263 38.6058 49.7516 38.0876 49.7516C36.6071 49.7516 35.1266 49.7516 33.6461 49.7516C32.9058 49.7516 32.8318 49.376 32.8318 48.775C32.8318 48.174 32.8318 47.6481 33.6461 47.6481C34.3863 47.7232 35.1266 47.7232 35.8668 47.7232Z" fill="#222B54"/>
<path d="M35.4984 12.4132C35.0543 12.4132 34.7582 12.1878 34.4621 11.8873C33.2036 10.6102 31.9452 9.33299 30.6868 7.98069C30.1686 7.4548 29.9465 6.85378 30.5387 6.32788C31.0569 5.80199 31.6491 6.02737 32.0932 6.55327C33.4997 7.98069 34.8322 9.40812 36.1646 10.8355C36.4607 11.1361 36.4607 11.4366 36.3867 11.7371C36.2386 12.1878 35.9426 12.4132 35.4984 12.4132Z" fill="#222B54"/>
<path d="M28.7611 10.2346C28.7611 9.33303 29.3532 8.9574 30.0935 9.48329C31.2039 10.3097 32.3143 11.2112 33.2026 12.263C33.5727 12.6387 33.6467 13.3148 33.2026 13.5402C32.8324 13.7656 32.3143 14.3666 31.648 13.6153C30.9078 12.7138 30.0195 11.8874 29.1312 11.061C28.8351 10.7605 28.687 10.5351 28.7611 10.2346Z" fill="#222B54"/>
<path d="M37.0524 9.25784C36.6823 9.25784 36.3862 9.10758 36.1641 8.80707C35.3498 7.98067 34.5355 7.15426 33.7213 6.32786C33.2771 5.80197 33.055 5.27607 33.5732 4.75018C34.0914 4.22429 34.6836 4.37454 35.1277 4.90043C35.942 5.72684 36.8303 6.62837 37.6446 7.45477C38.0147 7.83041 38.0887 8.20605 37.9407 8.65682C37.7926 9.03245 37.4965 9.25784 37.0524 9.25784Z" fill="#222B54"/>
<path d="M44.8988 63.5C53.2389 63.5 59.9999 56.6383 59.9999 48.174C59.9999 39.7096 53.2389 32.8479 44.8988 32.8479C36.5586 32.8479 29.7976 39.7096 29.7976 48.174C29.7976 56.6383 36.5586 63.5 44.8988 63.5Z" fill="white" stroke="#222B54" stroke-width="2" stroke-miterlimit="10"/>
<path d="M45.1216 40.2855V56.0623" stroke="#222B54" stroke-width="2" stroke-miterlimit="10" stroke-linecap="round"/>
<path d="M52.9689 48.1739H37.3496" stroke="#222B54" stroke-width="2" stroke-miterlimit="10" stroke-linecap="round"/>
</svg>
