<svg width="60" height="65" viewBox="0 0 60 65" fill="none" xmlns="http://www.w3.org/2000/svg">
<path d="M26.9148 37.9742C27.3556 37.9742 27.723 37.9742 28.0169 37.9742C35.2179 37.9742 42.4923 37.9742 49.6932 37.9742C51.2362 37.9742 51.4567 38.1947 51.4567 39.6642C51.4567 47.3795 51.4567 55.0948 51.4567 62.81C51.4567 64.2796 51.1627 64.5001 49.7666 64.5001C33.8952 64.5001 17.9503 64.5001 2.07893 64.5001C0.682836 64.5001 0.462402 64.2796 0.462402 62.8835C0.462402 46.9386 0.462402 30.9937 0.462402 15.0489C0.462402 13.7262 0.756315 13.4323 2.07893 13.4323C9.86768 13.4323 17.6564 13.4323 25.4452 13.4323C26.6943 13.4323 26.9882 13.7262 26.9882 14.9754C26.9882 22.2498 26.9882 29.5242 26.9882 36.7986C26.9148 37.166 26.9148 37.5334 26.9148 37.9742ZM24.7839 37.9008C24.7839 30.4059 24.7839 22.9846 24.7839 15.5632C22.653 15.5632 20.5956 15.5632 18.4647 15.5632C18.4647 17.6941 18.4647 19.7515 18.4647 21.8089C18.4647 22.7641 18.1708 23.058 17.1421 23.1315C14.7908 23.1315 12.4394 23.1315 10.0881 23.1315C9.13289 23.1315 8.83898 22.7641 8.7655 21.8089C8.7655 20.0454 8.7655 18.2819 8.7655 16.445C8.7655 16.151 8.7655 15.8571 8.69202 15.5632C6.56114 15.5632 4.50373 15.5632 2.44633 15.5632C2.44633 23.058 2.44633 30.4794 2.44633 37.9008C9.94116 37.9008 17.3625 37.9008 24.7839 37.9008ZM26.9882 40.0316C26.9882 47.5265 26.9882 54.9478 26.9882 62.3692C34.4831 62.3692 41.9044 62.3692 49.3258 62.3692C49.3258 54.9478 49.3258 47.5265 49.3258 40.0316C47.1949 40.0316 45.1375 40.0316 43.0066 40.0316C43.0066 40.399 43.0066 40.6929 43.0066 40.9869C43.0066 42.6769 43.0066 44.4404 43.0066 46.1304C43.0066 47.1591 42.6392 47.5265 41.684 47.5265C39.3327 47.5265 36.9813 47.5265 34.63 47.5265C33.7483 47.5265 33.3809 47.1591 33.3809 46.2773C33.3809 44.5138 33.3809 42.7503 33.3809 40.9134C33.3809 40.6195 33.3809 40.3255 33.3074 39.9582C31.1765 40.0316 29.1191 40.0316 26.9882 40.0316ZM2.44633 62.3692C9.94116 62.3692 17.3625 62.3692 24.7839 62.3692C24.7839 54.9478 24.7839 47.5265 24.7839 40.0316C22.653 40.0316 20.5956 40.0316 18.4647 40.0316C18.4647 40.399 18.4647 40.6195 18.4647 40.9134C18.4647 42.6769 18.4647 44.4404 18.4647 46.2773C18.4647 47.0121 18.1708 47.5265 17.3625 47.5265C14.8642 47.5265 12.366 47.5265 9.86768 47.5265C9.13289 47.5265 8.7655 47.0121 8.7655 46.2773C8.7655 44.9547 8.7655 43.6321 8.7655 42.3095C8.7655 41.5747 8.7655 40.7664 8.7655 40.0316C6.56114 40.0316 4.50373 40.0316 2.44633 40.0316C2.44633 47.5265 2.44633 54.9478 2.44633 62.3692ZM40.8757 45.4691C40.8757 43.6321 40.8757 41.7951 40.8757 40.0316C39.0387 40.0316 37.2753 40.0316 35.5118 40.0316C35.5118 41.8686 35.5118 43.6321 35.5118 45.4691C37.2753 45.4691 39.0387 45.4691 40.8757 45.4691ZM16.3338 15.5632C14.4968 15.5632 12.7334 15.5632 10.8964 15.5632C10.8964 17.4002 10.8964 19.1637 10.8964 21.0006C12.7334 21.0006 14.4968 21.0006 16.3338 21.0006C16.3338 19.0902 16.3338 17.3267 16.3338 15.5632ZM10.9699 40.0316C10.9699 41.8686 10.9699 43.6321 10.9699 45.4691C12.8068 45.4691 14.5703 45.4691 16.3338 45.4691C16.3338 43.6321 16.3338 41.8686 16.3338 40.0316C14.4968 40.0316 12.7334 40.0316 10.9699 40.0316Z" fill="#222B54"/>
<path d="M39.9923 3.14527C40.2862 0.940911 40.8005 0.500038 43.0049 0.500038C45.3562 0.500038 47.781 0.500038 50.1323 0.500038C52.2632 0.500038 52.851 0.940911 53.145 3.14527C54.0267 3.14527 54.9085 3.14527 55.7167 3.14527C58.1415 3.14527 59.5376 4.54137 59.5376 6.96617C59.5376 14.5345 59.5376 22.1028 59.5376 29.6711C59.5376 32.0959 58.1415 33.492 55.7902 33.492C49.6915 33.492 43.5192 33.492 37.4205 33.492C35.0692 33.492 33.5996 32.0959 33.5996 29.6711C33.5996 22.1028 33.5996 14.461 33.5996 6.89269C33.5996 4.54137 34.9957 3.14527 37.347 3.14527C38.2288 3.14527 39.1105 3.14527 39.9923 3.14527ZM40.0657 5.34964C39.9188 5.27616 39.8453 5.27616 39.7718 5.27616C38.9636 5.27616 38.2288 5.27616 37.4205 5.27616C36.0979 5.27616 35.657 5.71703 35.657 7.11312C35.657 14.608 35.657 22.1028 35.657 29.5976C35.657 31.0672 36.0979 31.5081 37.5675 31.5081C43.5927 31.5081 49.618 31.5081 55.6432 31.5081C57.1128 31.5081 57.5537 31.0672 57.5537 29.5976C57.5537 23.9398 57.5537 18.2819 57.5537 12.6975C57.5537 10.7136 57.5537 8.80314 57.5537 6.81921C57.5537 6.08442 57.3332 5.42311 56.5985 5.34964C55.4228 5.20268 54.3206 5.34964 53.145 5.34964C52.9245 7.40704 52.2632 7.92139 50.2793 7.92139C47.781 7.92139 45.3562 7.92139 42.8579 7.92139C40.874 7.92139 40.2862 7.33356 40.0657 5.34964ZM42.1966 5.79051C45.1358 5.79051 48.0749 5.79051 50.9406 5.79051C50.9406 4.68833 50.9406 3.65962 50.9406 2.63092C48.0014 2.63092 45.1358 2.63092 42.1966 2.63092C42.1966 3.65962 42.1966 4.68833 42.1966 5.79051Z" fill="#222B54"/>
<path d="M46.5338 26.8054C44.8438 26.8054 43.1537 26.8054 41.4637 26.8054C40.7289 26.8054 40.2146 26.5849 40.1411 25.7767C40.1411 25.1154 40.582 24.748 41.3902 24.748C44.8438 24.748 48.2973 24.748 51.7508 24.748C52.6325 24.748 53.0734 25.1154 52.9999 25.7767C52.9264 26.5114 52.4855 26.8054 51.7508 26.8054C50.0607 26.8054 48.2973 26.8054 46.5338 26.8054Z" fill="#222B54"/>
<path d="M46.5327 14.0936C44.8427 14.0936 43.1526 14.0936 41.4626 14.0936C40.7279 14.0936 40.2135 13.8731 40.14 13.0649C40.0665 12.4036 40.5809 12.0362 41.3892 12.0362C44.8427 12.0362 48.2962 12.0362 51.7497 12.0362C52.6314 12.0362 53.0723 12.4036 52.9988 13.0649C52.9253 13.8731 52.411 14.0936 51.6762 14.0936C49.9862 14.0936 48.2227 14.0936 46.5327 14.0936Z" fill="#222B54"/>
<path d="M46.6807 18.3554C48.3707 18.3554 50.0607 18.3554 51.7508 18.3554C52.4855 18.3554 52.9999 18.5024 53.0734 19.3841C53.1468 20.0454 52.6325 20.4863 51.7508 20.4863C48.3707 20.4863 44.9172 20.4863 41.5372 20.4863C40.582 20.4863 40.1411 20.1189 40.1411 19.4576C40.1411 18.7963 40.582 18.4289 41.5372 18.4289C43.2272 18.3554 44.9172 18.3554 46.6807 18.3554Z" fill="#222B54"/>
<path d="M10.8251 29.2302L13.3968 26.6584L15.9686 29.2302" fill="white"/>
<path d="M10.8251 29.2302L13.3968 26.6584L15.9686 29.2302" stroke="#222B54" stroke-miterlimit="10" stroke-linecap="round" stroke-linejoin="round"/>
<path d="M13.3964 26.6584V33.9328" stroke="#222B54" stroke-miterlimit="10" stroke-linecap="round" stroke-linejoin="round"/>
<path d="M15.9683 55.756L13.3966 58.3278L10.8248 55.756" fill="white"/>
<path d="M15.9683 55.756L13.3966 58.3278L10.8248 55.756" stroke="#222B54" stroke-miterlimit="10" stroke-linecap="round" stroke-linejoin="round"/>
<path d="M13.3964 58.3279V51.0535" stroke="#222B54" stroke-miterlimit="10" stroke-linecap="round" stroke-linejoin="round"/>
</svg>
