<svg width="45" height="65" viewBox="0 0 45 65" fill="none" xmlns="http://www.w3.org/2000/svg">
<path d="M34.3475 8.83014C36.6092 8.83014 38.8709 8.75049 41.1326 8.75049C41.9905 8.75049 42.9263 8.75049 43.6282 9.1487C44.3301 9.54692 44.9541 10.1841 45.266 11.0601C45.5 11.8565 45.5 12.653 45.5 13.529C45.5 29.2185 45.5 44.908 45.5 60.5975C45.5 62.4293 44.6421 63.7832 42.9263 64.3407C42.4584 64.5 41.9905 64.5 41.4445 64.5C29.3561 64.5 17.2678 64.5 5.17938 64.5C4.63345 64.5 4.08752 64.5 3.54159 64.5C1.82582 64.3407 0.655979 63.0664 0.5 61.2347C0.5 60.9957 0.5 60.7568 0.5 60.5179C0.5 44.6691 0.5 28.7407 0.5 12.8919C0.5 12.0158 0.500002 11.1398 1.12392 10.3433C1.74784 9.54692 2.37175 8.98942 3.38561 8.90978C5.80329 8.75049 8.22097 8.90978 10.6386 8.83014C11.1066 8.83014 11.7305 9.06906 12.0425 8.75049C12.3544 8.43193 12.1204 7.79479 12.1204 7.31694C12.1204 6.6798 12.1205 6.04266 12.4324 5.48517C12.9003 4.68875 13.6023 4.21089 14.5381 4.21089C15.786 4.21089 17.0338 4.21089 18.2816 4.21089C18.6716 4.21089 18.8276 4.05161 18.9055 3.73304C19.1395 2.53841 19.8414 1.5827 20.8553 1.02521C21.7912 0.467711 22.883 0.388069 24.0529 0.626995C25.5347 1.02521 26.5485 1.98091 26.8605 3.41447C27.0944 4.29053 27.4844 4.13125 28.0303 4.13125C28.9662 4.13125 29.8241 4.13125 30.76 4.13125C31.3839 4.13125 32.1638 4.13125 32.7877 4.37018C33.4896 4.68874 33.7236 5.56481 33.7236 6.36123C33.7236 7.07801 33.7236 7.55586 33.7236 8.51157C33.6456 8.83014 34.0355 8.75049 34.1915 8.83014C34.1915 8.83014 34.2695 8.83014 34.3475 8.83014ZM31.6178 6.75944C31.5399 6.44087 31.4619 6.28159 31.0719 6.28159C29.7461 6.28159 28.4203 6.28159 27.0945 6.28159C26.9385 6.28159 26.7825 6.28159 26.7045 6.52051C26.5485 6.99837 26.1586 7.31694 25.8466 7.6355C25.0667 8.43193 24.0529 8.98942 22.961 8.90978C21.4012 8.83014 20.1534 8.11336 19.3735 6.60016C19.2175 6.28159 19.0615 6.28159 18.7496 6.28159C17.4237 6.28159 16.1759 6.28159 14.8501 6.28159C14.4601 6.28159 14.3042 6.36123 14.3042 6.83908C14.3042 8.59121 14.3042 10.423 14.3042 12.1751C14.3042 13.2901 14.2262 13.1308 15.24 13.1308C15.474 13.1308 15.708 13.1308 15.9419 13.1308C20.9333 13.0512 26.0026 13.2901 30.9939 13.0512C31.4619 13.0512 31.6178 12.8919 31.6178 12.414V6.75944ZM43.2383 36.7049C43.2383 28.661 43.2383 20.6172 43.2383 12.5733C43.2383 11.3787 42.7703 10.9805 41.6785 10.9805C39.2608 10.9805 36.7652 10.9805 34.3475 10.9805C33.9575 10.9805 33.6456 11.4583 33.6456 11.8565C33.6456 12.7326 33.7236 12.9715 33.6456 13.529C33.4896 14.4051 32.7097 15.0422 31.8518 15.2015C31.1499 15.3608 30.448 15.2812 29.7461 15.2812C24.6768 15.2812 19.6074 15.2812 14.5381 15.2812C13.4463 15.2812 12.4324 14.4847 12.1984 13.4494C12.0425 12.7326 12.1204 12.0158 12.1204 11.3787C12.1204 11.0601 12.0425 10.9008 11.6525 10.9008C9.07886 10.9008 6.42721 10.9008 3.85355 10.9008C2.99567 10.9008 2.60572 11.3787 2.60572 12.1751C2.60572 28.2628 2.60572 44.4302 2.60572 60.5179C2.60572 60.5975 2.60572 60.7568 2.60572 60.8365C2.68371 61.6329 2.99567 62.0311 3.85355 62.0311C4.2435 62.0311 4.63345 62.1107 5.0234 62.1107C16.3319 62.1107 27.5624 62.1107 38.8709 62.1107C39.8847 62.1107 40.8986 62.1107 41.9125 62.1107C42.9263 62.1107 43.2383 61.4736 43.2383 60.6772C43.2383 52.7926 43.2383 44.7487 43.2383 36.7049ZM20.9333 4.68875C20.9333 5.56481 21.9471 6.83908 22.727 6.83908C23.9749 6.83908 24.9887 5.80373 24.9887 4.68875C24.9887 3.49411 24.0529 2.69769 22.727 2.69769C21.7912 2.69769 20.9333 3.6534 20.9333 4.68875Z" fill="#222B54"/>
<path d="M34.3494 8.83095C34.2704 8.83095 34.2704 8.83095 34.1914 8.83095C34.1914 8.75028 34.2704 8.75028 34.3494 8.83095Z" fill="#222B54"/>
<path d="M20.9341 4.68875C20.9341 3.6534 21.792 2.77734 22.7278 2.69769C24.0537 2.69769 24.9895 3.49411 24.9895 4.68875C24.9895 5.80374 23.9757 6.83908 22.7278 6.83908C21.9479 6.83908 20.9341 5.56481 20.9341 4.68875Z" fill="#222B54"/>
<path d="M28.578 23.9622C25.6144 23.9622 22.6508 23.9622 19.6872 23.9622C19.2973 23.9622 18.9073 23.9622 18.5954 23.7232C18.1274 23.4047 17.8935 22.9268 18.1274 22.3693C18.2834 21.7322 18.8293 21.5729 19.3753 21.5729C20.2331 21.5729 21.091 21.5729 21.9489 21.5729C27.1742 21.5729 32.3995 21.5729 37.6248 21.5729C38.1708 21.5729 38.7167 21.7322 39.0286 22.21C39.4966 23.1657 38.7167 23.9622 38.0148 23.9622C37.5468 23.9622 37.0789 23.9622 36.6889 23.9622C33.8813 23.8825 31.2297 23.8825 28.578 23.9622Z" fill="#222B54"/>
<path d="M37.8584 54.7837C31.8532 54.7837 25.848 54.7837 19.7648 54.7837C19.0629 54.7837 18.439 54.7041 18.205 53.9873C17.971 53.3501 18.361 52.4741 19.0629 52.3944C19.4528 52.3944 19.8428 52.3944 20.2327 52.3944C26.0039 52.3944 31.7752 52.3944 37.5464 52.3944C38.1703 52.3944 38.7162 52.5537 38.9502 53.1909C39.3402 53.9873 38.9502 54.5448 37.8584 54.7837Z" fill="#222B54"/>
<path d="M28.5783 42.1205C31.6199 42.1205 34.7395 42.1205 37.7811 42.1205C38.483 42.1205 39.0289 42.5984 39.0289 43.2355C39.0289 44.032 38.561 44.5098 37.7811 44.5098C32.6338 44.5098 27.4865 44.5098 22.3391 44.5098C21.3253 44.5098 20.2334 44.5098 19.2196 44.5098C18.4397 44.5098 18.0497 44.032 18.1277 43.3152C18.2057 42.4391 18.5957 42.2002 19.2976 42.2002C22.3392 42.1205 25.4587 42.1205 28.5783 42.1205Z" fill="#222B54"/>
<path d="M28.5761 34.2359C25.5345 34.2359 22.4929 34.2359 19.4514 34.2359C18.8274 34.2359 18.5155 33.997 18.2815 33.5191C18.0475 33.0413 18.2035 32.6431 18.4375 32.3245C18.6715 31.9263 19.0614 31.8466 19.5293 31.8466C24.7546 31.8466 30.0579 31.8466 35.2832 31.8466C36.2191 31.8466 37.077 31.9263 38.0129 31.9263C38.6368 31.9263 39.1047 32.4041 39.1047 33.0413C39.1047 33.6784 38.7148 34.1563 38.0909 34.2359C37.7009 34.2359 37.311 34.2359 36.999 34.2359C34.1134 34.1563 31.3058 34.1563 28.5761 34.2359Z" fill="#222B54"/>
<path d="M8.06465 42.2002C8.37661 42.1205 8.53259 42.2798 8.68857 42.5187C9.2345 43.1559 9.85841 43.793 10.4043 44.4302C10.7163 44.7487 10.8723 44.5098 11.0283 44.2709C11.7302 43.2355 12.4321 42.2798 13.212 41.3241C13.6019 40.7666 14.0699 40.1295 14.5378 39.572C14.8497 39.1738 15.4737 39.1738 15.9416 39.4923C16.4875 39.8906 16.5655 40.2888 16.1756 40.7666C14.6938 42.8373 13.212 44.8284 11.6522 46.8991C11.2622 47.4566 10.6383 47.4566 10.1704 46.9787C9.23449 45.9434 8.14264 45.1469 7.28476 44.0319C7.05079 43.7134 6.66085 43.3948 6.81683 42.9966C7.05079 42.4391 7.44073 42.1205 8.06465 42.2002Z" fill="#222B54"/>
<path d="M7.98663 31.8468C8.29858 31.7672 8.45456 32.0061 8.68853 32.1654C9.31244 32.7229 9.85837 33.4396 10.4043 33.9971C10.7942 34.3953 10.8722 34.1564 11.0282 33.9175C12.0421 32.5636 13.0559 31.13 14.0698 29.7761C14.3818 29.3779 14.6157 28.9 15.2396 28.9797C16.0195 29.0593 16.4875 29.8557 16.0195 30.4929C15.0837 31.7672 14.1478 33.1211 13.2119 34.3953C12.666 35.1918 12.0421 35.9882 11.4182 36.705C10.8722 37.3421 10.5603 37.2625 10.0143 36.705C9.07847 35.7493 8.06461 34.7139 7.12874 33.7582C6.89477 33.5193 6.50482 33.2804 6.81678 32.8025C7.12874 32.245 7.4407 31.9264 7.98663 31.8468Z" fill="#222B54"/>
<path d="M10.7942 57.6507C10.6383 57.6507 10.4823 57.5711 10.4043 57.4914C9.23444 56.3765 8.06459 55.2615 7.05073 53.9872C6.73877 53.6686 6.81676 53.2704 7.05073 52.9518C7.2847 52.5536 7.75264 52.3944 8.14259 52.474C8.45455 52.5536 8.68851 52.7926 8.84449 53.0315C9.31243 53.589 9.85836 54.0668 10.3263 54.6243C10.5603 54.9429 10.7942 54.8633 10.9502 54.6243C12.0421 53.1111 13.2119 51.6776 14.3038 50.0847C14.6157 49.6069 15.0837 49.6069 15.4736 49.6865C15.9415 49.7662 16.0975 50.0847 16.2535 50.5626C16.3315 50.8811 16.0975 51.0404 16.0195 51.1997C14.6157 53.1908 13.1339 55.1022 11.6521 57.0932C11.4961 57.3322 11.1842 57.5711 10.7942 57.6507Z" fill="#222B54"/>
<path d="M10.7169 24.1215C11.4188 23.0065 12.2766 22.0508 12.9006 21.0154C13.3685 20.2986 13.9144 19.6615 14.3824 19.104C14.7723 18.6262 15.4742 18.6262 15.9422 19.0244C16.4101 19.4226 16.4101 19.9004 15.9422 20.4579C14.7723 22.0508 13.5245 23.6436 12.3546 25.2365C12.1207 25.6347 11.8087 25.9532 11.5747 26.3514C11.1068 26.9089 10.6389 26.9089 10.1709 26.4311C9.15705 25.3957 8.1432 24.3604 7.20732 23.325C6.81738 22.9268 6.81737 22.449 7.12933 22.0508C7.51928 21.5729 8.1432 21.4933 8.53314 21.8915C9.23505 22.6083 9.93696 23.325 10.7169 24.1215Z" fill="#222B54"/>
</svg>
