<svg width="34" height="36" viewBox="0 0 34 36" fill="none" xmlns="http://www.w3.org/2000/svg">
<path d="M2.86887 11.2706C3.82767 11.3922 5.06613 11.6355 6.34453 11.676C7.62294 11.7166 8.86139 11.9193 10.0998 12.0004C11.4182 12.0815 12.7765 12.2436 14.0949 12.122C16.0524 11.9598 18.01 11.8787 19.9675 11.6355C21.3658 11.4733 22.764 11.3111 24.2022 11.2706C25.6005 11.23 26.0799 12.1626 25.7203 13.3384C25.1211 15.3656 24.402 17.3523 23.7628 19.339C23.563 19.9878 23.4831 20.677 23.0836 21.2446C22.9638 21.4068 23.1236 21.569 23.2434 21.7312C24.5618 23.1908 25.0811 24.9342 25.0012 26.8804C25.0012 27.0831 25.0412 27.2453 25.161 27.448C26.3995 28.9888 26.04 30.3267 24.2022 30.9349C23.2434 31.2593 22.2846 31.0566 21.6055 30.2862C21.1261 29.7591 20.8864 29.7186 20.367 30.2457C19.4881 31.2187 18.01 31.3404 17.0112 30.7322C16.9313 30.6917 16.8514 30.6511 16.7715 30.57C16.4519 30.3267 16.3321 29.7186 15.9326 29.7186C15.613 29.7591 15.3733 30.2051 15.0537 30.4889C14.0949 31.3404 12.0174 31.1782 11.2584 30.0835C10.9787 29.678 10.8189 29.678 10.4993 30.124C9.66039 31.2593 7.62294 31.6647 6.62419 30.3673L6.58423 30.3267C5.90508 29.6375 5.94503 29.678 5.22593 30.4078C4.62668 31.016 3.86763 31.2593 2.98872 31.1376C1.87012 30.9349 1.11107 30.3267 0.831418 29.1915C0.711568 28.6239 1.11107 28.1779 1.39072 27.7319C1.59047 27.448 1.67036 27.1642 1.67036 26.8399C1.71031 24.9748 2.22967 23.3124 3.38822 21.8528C3.62793 21.569 3.62792 21.3257 3.50807 20.9608C2.86887 19.0958 2.26962 17.2712 1.63042 15.4062C1.43067 14.7574 1.23092 14.0682 1.03117 13.4195C0.591717 12.0409 1.11106 11.3111 2.86887 11.2706ZM3.14852 12.4058C1.79022 12.4058 1.75026 12.4464 2.06986 13.2573C3.06862 15.8522 3.82767 18.5687 4.74653 21.2041C4.90633 21.6096 4.82643 21.8934 4.54678 22.2177C3.26837 23.5557 2.74901 25.1775 2.86887 27.0426C2.90882 27.448 2.78897 27.7319 2.50932 28.0562C1.71031 28.9482 1.79022 29.3942 2.82892 29.9213C3.30833 30.1646 3.82767 29.9618 4.26712 29.678C4.74652 29.3537 5.02618 28.8671 5.34578 28.4211C5.66538 27.9346 6.02493 27.9346 6.38448 28.4211C6.58423 28.7049 6.82393 29.0293 7.06363 29.3131C7.90258 30.2862 8.86139 30.2051 9.70034 29.3131C9.94004 29.0293 10.1398 28.7049 10.3795 28.4211C10.739 27.9346 11.1385 27.894 11.4581 28.4211C11.6978 28.8266 11.9775 29.1915 12.2971 29.5158C13.0162 30.1646 13.7353 30.2051 14.4544 29.5564C14.6941 29.3131 14.9338 29.0698 15.1336 28.786C15.8527 27.7724 15.9326 27.7724 16.6517 28.8266C16.9713 29.2726 17.3308 29.678 17.8102 29.9213C18.01 30.0429 18.1698 30.0429 18.4494 30.0024C19.2484 29.9213 19.7278 29.3942 20.1273 28.8266C20.8464 27.813 20.9663 27.813 21.6454 28.786C21.9251 29.1915 22.2846 29.5969 22.7241 29.8402C23.2434 30.124 24.0424 29.9213 24.5618 29.2726C25.0012 28.7455 24.4819 28.4211 24.2422 28.1373C23.8826 27.7319 23.8027 27.367 23.8427 26.8804C23.8826 25.2181 23.5231 23.6368 22.3246 22.3799C21.8851 21.9339 21.7653 21.5285 22.0449 20.9608C22.1248 20.7581 22.1648 20.5554 22.2447 20.3527C23.0037 17.9605 23.8027 15.6089 24.5618 13.2167C24.8015 12.4869 24.7216 12.4058 24.0025 12.4058C23.6829 12.4058 23.3633 12.3653 23.0437 12.4464C21.0062 12.8113 18.9688 12.8518 16.9313 13.0951C14.1348 13.3789 11.2983 13.2978 8.50184 12.9735C7.82268 12.8924 7.14354 12.8924 6.42444 12.8113C5.22593 12.6896 4.02742 12.5275 3.14852 12.4058Z" fill="white"/>
<path d="M17.4108 9.72988C15.1736 9.72988 13.8952 8.02698 14.3746 5.83755C15.0138 2.9183 16.9714 1.33705 19.648 0.607235C21.5656 0.0801495 23.1636 1.62086 23.3234 3.64812C23.4832 5.71592 21.4058 8.39189 19.5681 9.16225C18.8091 9.44606 18.1299 9.89206 17.4108 9.72988ZM22.1649 3.8103C22.1649 2.67503 21.8053 1.98577 21.0862 1.86413C20.3272 1.7425 19.5282 1.70195 18.7691 2.06686C17.0113 2.95885 15.8128 4.25629 15.4532 6.28355C15.1736 7.8648 16.3721 9.04061 17.8902 8.67571C18.7691 8.47298 19.4882 8.06753 20.1274 7.54044C21.286 6.60791 22.1649 5.4321 22.1649 3.8103Z" fill="white"/>
<path d="M6.82303 5.67548C4.98532 5.43221 3.86671 7.54055 4.34612 9.2029C4.38607 9.40563 4.46597 9.60835 4.54587 9.81108C4.86547 10.3787 4.34611 10.3787 4.06646 10.5409C3.66696 10.7842 3.62701 10.4598 3.50716 10.176C3.14761 9.12181 2.98781 8.06764 3.38731 6.93238C3.98657 5.31057 5.46472 4.49967 7.18258 4.62131C8.86048 4.74294 10.2188 5.43221 11.4173 6.40529C12.7356 7.41892 13.5746 8.838 14.054 10.5003C14.1339 10.7842 13.8942 10.8652 13.6944 10.9463C13.4148 11.068 13.1751 11.068 13.0952 10.7436C12.8155 9.6489 12.1763 8.71636 11.4572 7.946C10.5384 6.93238 9.45973 6.12148 8.10143 5.87821C7.66197 5.71602 7.22253 5.5133 6.82303 5.67548Z" fill="white"/>
<path d="M10.9784 8.59466C10.9784 8.83793 10.8586 9.00011 10.6988 9.12174C10.0596 9.72992 9.46033 10.3786 8.82113 11.0274C8.54148 11.3112 8.26183 11.4734 7.94222 11.149C7.58267 10.7841 7.78242 10.5003 8.06207 10.2165C8.70127 9.56774 9.34048 8.91902 9.97968 8.2703C10.1794 8.06757 10.3792 7.94594 10.6588 8.06757C10.8586 8.18921 10.9784 8.35139 10.9784 8.59466Z" fill="white"/>
<path d="M8.02233 6.93213C8.58163 6.93213 8.74142 7.25649 8.46177 7.66194C7.86252 8.51339 7.10347 9.20265 6.34442 9.85137C6.18462 10.0136 5.86501 10.1757 5.66526 9.93246C5.50546 9.72974 5.34567 9.40538 5.58537 9.16211C6.26452 8.4323 6.98362 7.74303 7.70272 7.01322C7.78262 6.93213 7.98238 6.93213 8.02233 6.93213Z" fill="white"/>
<path d="M13.5353 23.6774C11.8574 23.6774 10.4591 23.4747 9.14078 22.8259C8.82118 22.6638 8.46163 22.5016 8.18198 22.2583C5.66512 20.3932 5.82492 18.1227 8.26187 16.4198C10.0596 15.1629 12.137 14.9197 14.2943 15.1629C15.5728 15.2846 16.7713 15.4873 17.8499 16.136C19.1683 16.8658 20.167 17.8389 20.0871 19.5418C20.0472 20.596 19.4879 21.3663 18.7288 21.9745C17.1308 23.2719 15.2532 23.6369 13.5353 23.6774ZM12.8561 22.5421C13.4554 22.6232 14.0147 22.461 14.574 22.4205C15.7725 22.3394 16.8911 21.9745 17.8899 21.2447C19.408 20.15 19.408 18.5282 17.8499 17.4335C15.4129 15.7306 11.0983 15.8117 8.86113 17.3524C6.98347 18.6498 7.02342 20.0283 8.86113 21.3258C10.0197 22.2178 11.4179 22.5016 12.8561 22.5421Z" fill="white"/>
<path d="M10.1396 27.0833C8.30186 27.0833 6.46415 27.0833 4.5865 27.0833C4.14705 27.0833 4.06714 26.9211 4.06714 26.5156C4.06714 26.1102 4.14705 25.948 4.5865 25.948C8.34181 25.948 12.0572 25.9885 15.8125 25.948C16.2919 25.948 16.3318 26.1102 16.3318 26.5156C16.3318 26.9211 16.2519 27.0833 15.8125 27.0833C13.9348 27.0833 12.0572 27.0833 10.1396 27.0833Z" fill="white"/>
<path d="M20.1663 25.9885C20.4459 25.9885 20.7655 26.0291 21.0452 25.9885C21.6444 25.9075 21.8042 26.1913 21.7243 26.7184C21.6844 26.9616 21.6444 27.0833 21.3648 27.0833C20.5658 27.0833 19.7668 27.0833 18.9678 27.0833C18.5683 27.0833 18.5283 26.8805 18.5283 26.5562C18.5283 26.2318 18.5283 25.948 18.9678 25.948C19.3673 25.9885 19.7668 25.9885 20.1663 25.9885Z" fill="white"/>
<path d="M19.9674 6.93226C19.7277 6.93226 19.5679 6.81063 19.4081 6.64845C18.7289 5.95918 18.0498 5.26991 17.3706 4.5401C17.091 4.25629 16.9711 3.93193 17.2907 3.64811C17.5704 3.36429 17.89 3.48593 18.1297 3.76975C18.8887 4.5401 19.6078 5.31046 20.3269 6.08081C20.4867 6.24299 20.4867 6.40518 20.4468 6.56736C20.3669 6.81063 20.2071 6.93226 19.9674 6.93226Z" fill="white"/>
<path d="M16.3313 5.75661C16.3313 5.27007 16.6509 5.06734 17.0504 5.35116C17.6497 5.79715 18.249 6.2837 18.7284 6.85133C18.9281 7.05405 18.9681 7.41896 18.7284 7.54059C18.5286 7.66223 18.249 7.98659 17.8894 7.58114C17.4899 7.0946 17.0105 6.6486 16.5311 6.20261C16.3713 6.04042 16.2914 5.91879 16.3313 5.75661Z" fill="white"/>
<path d="M20.806 5.22943C20.6063 5.22943 20.4465 5.14833 20.3266 4.98615C19.8872 4.54016 19.4477 4.09416 19.0083 3.64817C18.7686 3.36435 18.6487 3.08054 18.9284 2.79672C19.208 2.51291 19.5276 2.594 19.7673 2.87781C20.2068 3.32381 20.6862 3.81035 21.1256 4.25634C21.3254 4.45907 21.3653 4.66179 21.2854 4.90506C21.2055 5.10779 21.0457 5.22943 20.806 5.22943Z" fill="white"/>
<path d="M25.0407 34.5028C29.5417 34.5028 33.1905 30.7997 33.1905 26.2316C33.1905 21.6636 29.5417 17.9604 25.0407 17.9604C20.5397 17.9604 16.8909 21.6636 16.8909 26.2316C16.8909 30.7997 20.5397 34.5028 25.0407 34.5028Z" fill="#222B54" stroke="white" stroke-miterlimit="10"/>
<path d="M25.1609 21.9746V30.4891" stroke="white" stroke-miterlimit="10" stroke-linecap="round"/>
<path d="M29.396 26.2319H20.9666" stroke="white" stroke-miterlimit="10" stroke-linecap="round"/>
</svg>
