<svg width="26" height="37" viewBox="0 0 26 37" fill="none" xmlns="http://www.w3.org/2000/svg">
<path d="M19.383 5.18888C20.6552 5.18888 21.9274 5.14408 23.1996 5.14408C23.6821 5.14408 24.2086 5.14408 24.6034 5.36807C24.9982 5.59206 25.3492 5.95045 25.5246 6.44324C25.6562 6.89123 25.6562 7.33921 25.6562 7.832C25.6562 16.6573 25.6562 25.4827 25.6562 34.308C25.6562 35.3384 25.1737 36.1 24.2086 36.4136C23.9453 36.5032 23.6821 36.5032 23.375 36.5032C16.5753 36.5032 9.77562 36.5032 2.9759 36.5032C2.66881 36.5032 2.36173 36.5032 2.05464 36.5032C1.08952 36.4136 0.431488 35.6968 0.34375 34.6664C0.34375 34.532 0.34375 34.3976 0.34375 34.2632C0.34375 25.3483 0.34375 16.3886 0.34375 7.47361C0.34375 6.98082 0.343751 6.48804 0.694704 6.04005C1.04566 5.59206 1.39661 5.27847 1.96691 5.23367C3.32685 5.14408 4.68679 5.23367 6.04674 5.18888C6.30995 5.18888 6.66091 5.32327 6.83638 5.14408C7.01186 4.96488 6.88025 4.60649 6.88025 4.3377C6.88025 3.97931 6.88025 3.62092 7.05573 3.30733C7.31894 2.85934 7.71377 2.59055 8.2402 2.59055C8.9421 2.59055 9.64401 2.59055 10.3459 2.59055C10.5653 2.59055 10.653 2.50095 10.6969 2.32176C10.8285 1.64978 11.2233 1.11219 11.7936 0.798602C12.32 0.485011 12.9342 0.440213 13.5922 0.574609C14.4257 0.798602 14.996 1.33619 15.1715 2.14256C15.3031 2.63535 15.5225 2.54575 15.8296 2.54575C16.356 2.54575 16.8385 2.54575 17.365 2.54575C17.7159 2.54575 18.1546 2.54575 18.5056 2.68015C18.9004 2.85934 19.032 3.35213 19.032 3.80012C19.032 4.2033 19.032 4.4721 19.032 5.00968C18.9881 5.18888 19.2075 5.14408 19.2952 5.18888C19.2952 5.18888 19.3391 5.18888 19.383 5.18888ZM17.8475 4.02411C17.8037 3.84491 17.7598 3.75532 17.5405 3.75532C16.7947 3.75532 16.0489 3.75532 15.3031 3.75532C15.2154 3.75532 15.1277 3.75532 15.0838 3.88971C14.996 4.15851 14.7767 4.3377 14.6012 4.51689C14.1625 4.96488 13.5922 5.27847 12.9781 5.23367C12.1007 5.18888 11.3988 4.78569 10.9601 3.93451C10.8723 3.75532 10.7846 3.75532 10.6091 3.75532C9.86335 3.75532 9.16144 3.75532 8.41567 3.75532C8.19632 3.75532 8.10859 3.80012 8.10859 4.06891C8.10859 5.05448 8.10859 6.08485 8.10859 7.07042C8.10859 7.6976 8.06472 7.60801 8.63501 7.60801C8.76662 7.60801 8.89823 7.60801 9.02984 7.60801C11.8375 7.56321 14.689 7.6976 17.4966 7.56321C17.7598 7.56321 17.8475 7.47361 17.8475 7.20482V4.02411ZM24.384 20.8684C24.384 16.3438 24.384 11.8191 24.384 7.29441C24.384 6.62243 24.1208 6.39844 23.5067 6.39844C22.1467 6.39844 20.7429 6.39844 19.383 6.39844C19.1636 6.39844 18.9881 6.66723 18.9881 6.89123C18.9881 7.38401 19.032 7.51841 18.9881 7.832C18.9004 8.32479 18.4617 8.68318 17.9791 8.77277C17.5843 8.86237 17.1895 8.81757 16.7947 8.81757C13.9432 8.81757 11.0917 8.81757 8.2402 8.81757C7.62603 8.81757 7.05573 8.36958 6.92412 7.7872C6.83638 7.38401 6.88025 6.98082 6.88025 6.62243C6.88025 6.44324 6.83638 6.35364 6.61704 6.35364C5.16936 6.35364 3.67781 6.35364 2.23012 6.35364C1.74756 6.35364 1.52822 6.62243 1.52822 7.07042C1.52822 16.1198 1.52822 25.2139 1.52822 34.2632C1.52822 34.308 1.52822 34.3976 1.52822 34.4424C1.57208 34.8904 1.74756 35.1144 2.23012 35.1144C2.44947 35.1144 2.66882 35.1592 2.88816 35.1592C9.24919 35.1592 15.5663 35.1592 21.9274 35.1592C22.4977 35.1592 23.068 35.1592 23.6383 35.1592C24.2086 35.1592 24.384 34.8008 24.384 34.3528C24.384 29.9178 24.384 25.3931 24.384 20.8684ZM11.8375 2.85934C11.8375 3.35213 12.4078 4.06891 12.8465 4.06891C13.5484 4.06891 14.1187 3.48652 14.1187 2.85934C14.1187 2.18736 13.5922 1.73938 12.8465 1.73938C12.32 1.73938 11.8375 2.27696 11.8375 2.85934Z" fill="white"/>
<path d="M19.384 5.18931C19.3396 5.18931 19.3396 5.18931 19.2952 5.18931C19.2952 5.14393 19.3396 5.14393 19.384 5.18931Z" fill="white"/>
<path d="M11.8379 2.85947C11.8379 2.27709 12.3205 1.7843 12.8469 1.7395C13.5927 1.7395 14.1191 2.18749 14.1191 2.85947C14.1191 3.48665 13.5488 4.06903 12.8469 4.06903C12.4082 4.06903 11.8379 3.35226 11.8379 2.85947Z" fill="white"/>
<path d="M16.1376 13.7007C14.4706 13.7007 12.8036 13.7007 11.1365 13.7007C10.9172 13.7007 10.6978 13.7007 10.5224 13.5663C10.2591 13.3871 10.1275 13.1183 10.2592 12.8047C10.3469 12.4463 10.654 12.3567 10.9611 12.3567C11.4436 12.3567 11.9262 12.3567 12.4087 12.3567C15.348 12.3567 18.2872 12.3567 21.2264 12.3567C21.5335 12.3567 21.8406 12.4463 22.0161 12.7151C22.2793 13.2527 21.8406 13.7007 21.4458 13.7007C21.1826 13.7007 20.9193 13.7007 20.7 13.7007C19.1207 13.6559 17.6292 13.6559 16.1376 13.7007Z" fill="white"/>
<path d="M21.3579 31.0378C17.98 31.0378 14.6021 31.0378 11.1803 31.0378C10.7855 31.0378 10.4345 30.993 10.3029 30.5898C10.1713 30.2314 10.3907 29.7386 10.7855 29.6938C11.0048 29.6938 11.2242 29.6938 11.4435 29.6938C14.6898 29.6938 17.9361 29.6938 21.1825 29.6938C21.5334 29.6938 21.8405 29.7834 21.9721 30.1418C22.1914 30.5898 21.9721 30.9034 21.3579 31.0378Z" fill="white"/>
<path d="M16.1378 23.9146C17.8487 23.9146 19.6034 23.9146 21.3143 23.9146C21.7091 23.9146 22.0162 24.1833 22.0162 24.5417C22.0162 24.9897 21.753 25.2585 21.3143 25.2585C18.419 25.2585 15.5236 25.2585 12.6282 25.2585C12.0579 25.2585 11.4438 25.2585 10.8735 25.2585C10.4348 25.2585 10.2154 24.9897 10.2593 24.5865C10.3032 24.0937 10.5225 23.9594 10.9173 23.9594C12.6282 23.9146 14.383 23.9146 16.1378 23.9146Z" fill="white"/>
<path d="M16.1365 19.4797C14.4256 19.4797 12.7147 19.4797 11.0038 19.4797C10.6528 19.4797 10.4774 19.3453 10.3457 19.0765C10.2141 18.8077 10.3019 18.5837 10.4335 18.4045C10.5651 18.1805 10.7844 18.1357 11.0476 18.1357C13.9869 18.1357 16.97 18.1357 19.9092 18.1357C20.4356 18.1357 20.9182 18.1805 21.4446 18.1805C21.7956 18.1805 22.0588 18.4493 22.0588 18.8077C22.0588 19.1661 21.8395 19.4349 21.4885 19.4797C21.2692 19.4797 21.0498 19.4797 20.8743 19.4797C19.2512 19.4349 17.6719 19.4349 16.1365 19.4797Z" fill="white"/>
<path d="M4.59876 23.9595C4.77424 23.9148 4.86198 24.0043 4.94971 24.1387C5.2568 24.4971 5.60775 24.8555 5.91483 25.2139C6.09031 25.3931 6.17805 25.2587 6.26579 25.1243C6.66061 24.5419 7.05543 24.0043 7.49413 23.4668C7.71347 23.1532 7.97668 22.7948 8.2399 22.4812C8.41538 22.2572 8.76633 22.2572 9.02954 22.4364C9.33663 22.6604 9.3805 22.8844 9.16115 23.1532C8.32764 24.3179 7.49413 25.4379 6.61674 26.6027C6.3974 26.9163 6.04644 26.9163 5.78322 26.6475C5.2568 26.0651 4.64263 25.6171 4.16007 24.9899C4.02846 24.8107 3.80912 24.6315 3.89686 24.4075C4.02846 24.0939 4.24781 23.9148 4.59876 23.9595Z" fill="white"/>
<path d="M4.55501 18.1358C4.73048 18.091 4.81822 18.2254 4.94983 18.315C5.30078 18.6285 5.60786 19.0317 5.91495 19.3453C6.13429 19.5693 6.17816 19.4349 6.2659 19.3005C6.8362 18.5389 7.4065 17.7326 7.9768 16.971C8.15227 16.747 8.28388 16.4782 8.63483 16.523C9.07352 16.5678 9.33674 17.0158 9.07352 17.3742C8.54709 18.091 8.02067 18.8525 7.49424 19.5693C7.18715 20.0173 6.8362 20.4653 6.48525 20.8685C6.17816 21.2269 6.00269 21.1821 5.6956 20.8685C5.16917 20.3309 4.59887 19.7485 4.07244 19.2109C3.94084 19.0765 3.72149 18.9421 3.89697 18.6733C4.07245 18.3598 4.24792 18.1806 4.55501 18.1358Z" fill="white"/>
<path d="M6.1343 32.6505C6.04656 32.6505 5.95882 32.6057 5.91495 32.5609C5.25692 31.9337 4.59888 31.3066 4.02858 30.5898C3.8531 30.4106 3.89697 30.1866 4.02858 30.0074C4.16019 29.7834 4.42341 29.6938 4.64275 29.7386C4.81823 29.7834 4.94983 29.9178 5.03757 30.0522C5.30079 30.3658 5.60787 30.6346 5.87109 30.9482C6.0027 31.1274 6.1343 31.0826 6.22204 30.9482C6.83621 30.097 7.49424 29.2906 8.10841 28.3946C8.28389 28.1258 8.5471 28.1258 8.76645 28.1706C9.02966 28.2154 9.1174 28.3946 9.20514 28.6634C9.24901 28.8426 9.1174 28.9322 9.07353 29.0218C8.28389 30.1418 7.45038 31.217 6.61686 32.3369C6.52913 32.4713 6.35365 32.6057 6.1343 32.6505Z" fill="white"/>
<path d="M6.09073 13.7904C6.48555 13.1632 6.96811 12.6256 7.31906 12.0432C7.58228 11.6401 7.88936 11.2817 8.15258 10.9681C8.37192 10.6993 8.76675 10.6993 9.02996 10.9233C9.29318 11.1473 9.29318 11.4161 9.02996 11.7297C8.37192 12.6256 7.67002 13.5216 7.01198 14.4176C6.88037 14.6416 6.70489 14.8208 6.57329 15.0448C6.31007 15.3583 6.04686 15.3583 5.78364 15.0896C5.21334 14.5072 4.64305 13.9248 4.11662 13.3424C3.89727 13.1184 3.89727 12.8496 4.07275 12.6256C4.29209 12.3568 4.64305 12.312 4.86239 12.536C5.25722 12.9392 5.65204 13.3424 6.09073 13.7904Z" fill="white"/>
</svg>
