<svg width="34" height="37" viewBox="0 0 34 37" fill="none" xmlns="http://www.w3.org/2000/svg">
<path d="M15.2374 21.5822C15.4892 21.5822 15.6991 21.5822 15.8671 21.5822C19.981 21.5822 24.1369 21.5822 28.2508 21.5822C29.1324 21.5822 29.2583 21.7062 29.2583 22.5328C29.2583 26.8726 29.2583 31.2125 29.2583 35.5523C29.2583 36.3789 29.0904 36.5029 28.2928 36.5029C19.2253 36.5029 10.116 36.5029 1.04853 36.5029C0.250935 36.5029 0.125 36.3789 0.125 35.5936C0.125 26.6246 0.125 17.6556 0.125 8.68664C0.125 7.94267 0.292914 7.77734 1.04853 7.77734C5.49829 7.77734 9.94804 7.77734 14.3978 7.77734C15.1114 7.77734 15.2793 7.94267 15.2793 8.64531C15.2793 12.7372 15.2793 16.829 15.2793 20.9209C15.2374 21.1275 15.2374 21.3342 15.2374 21.5822ZM14.02 21.5408C14.02 17.325 14.02 13.1505 14.02 8.97597C12.8026 8.97597 11.6272 8.97597 10.4098 8.97597C10.4098 10.1746 10.4098 11.3319 10.4098 12.4892C10.4098 13.0265 10.2419 13.1918 9.65419 13.2331C8.31086 13.2331 6.96754 13.2331 5.62422 13.2331C5.0785 13.2331 4.91058 13.0265 4.8686 12.4892C4.8686 11.4972 4.8686 10.5052 4.8686 9.47195C4.8686 9.30662 4.8686 9.14129 4.82662 8.97597C3.60924 8.97597 2.43383 8.97597 1.25843 8.97597C1.25843 13.1918 1.25843 17.3663 1.25843 21.5408C5.54026 21.5408 9.78012 21.5408 14.02 21.5408ZM15.2793 22.7395C15.2793 26.9553 15.2793 31.1298 15.2793 35.3043C19.5612 35.3043 23.801 35.3043 28.0409 35.3043C28.0409 31.1298 28.0409 26.9553 28.0409 22.7395C26.8235 22.7395 25.6481 22.7395 24.4307 22.7395C24.4307 22.9461 24.4307 23.1114 24.4307 23.2768C24.4307 24.2274 24.4307 25.2194 24.4307 26.17C24.4307 26.7486 24.2208 26.9553 23.6751 26.9553C22.3318 26.9553 20.9885 26.9553 19.6451 26.9553C19.1414 26.9553 18.9315 26.7486 18.9315 26.2527C18.9315 25.2607 18.9315 24.2687 18.9315 23.2354C18.9315 23.0701 18.9315 22.9048 18.8895 22.6981C17.6721 22.7395 16.4967 22.7395 15.2793 22.7395ZM1.25843 35.3043C5.54026 35.3043 9.78012 35.3043 14.02 35.3043C14.02 31.1298 14.02 26.9553 14.02 22.7395C12.8026 22.7395 11.6272 22.7395 10.4098 22.7395C10.4098 22.9461 10.4098 23.0701 10.4098 23.2354C10.4098 24.2274 10.4098 25.2194 10.4098 26.2527C10.4098 26.666 10.2419 26.9553 9.78012 26.9553C8.35285 26.9553 6.92556 26.9553 5.49828 26.9553C5.0785 26.9553 4.8686 26.666 4.8686 26.2527C4.8686 25.5087 4.8686 24.7647 4.8686 24.0207C4.8686 23.6074 4.8686 23.1528 4.8686 22.7395C3.60924 22.7395 2.43383 22.7395 1.25843 22.7395C1.25843 26.9553 1.25843 31.1298 1.25843 35.3043ZM23.2133 25.798C23.2133 24.7647 23.2133 23.7314 23.2133 22.7395C22.1639 22.7395 21.1564 22.7395 20.1489 22.7395C20.1489 23.7727 20.1489 24.7647 20.1489 25.798C21.1564 25.798 22.1639 25.798 23.2133 25.798ZM9.19242 8.97597C8.14295 8.97597 7.13546 8.97597 6.08599 8.97597C6.08599 10.0093 6.08599 11.0012 6.08599 12.0345C7.13546 12.0345 8.14295 12.0345 9.19242 12.0345C9.19242 10.9599 9.19242 9.96793 9.19242 8.97597ZM6.12797 22.7395C6.12797 23.7727 6.12797 24.7647 6.12797 25.798C7.17744 25.798 8.18493 25.798 9.19242 25.798C9.19242 24.7647 9.19242 23.7727 9.19242 22.7395C8.14295 22.7395 7.13546 22.7395 6.12797 22.7395Z" fill="white"/>
<path d="M22.7087 1.99087C22.8766 0.75092 23.1704 0.50293 24.4298 0.50293C25.7731 0.50293 27.1584 0.50293 28.5017 0.50293C29.7191 0.50293 30.055 0.75092 30.2229 1.99087C30.7266 1.99087 31.2304 1.99087 31.6921 1.99087C33.0774 1.99087 33.875 2.77618 33.875 4.14013C33.875 8.3973 33.875 12.6545 33.875 16.9116C33.875 18.2756 33.0774 19.0609 31.7341 19.0609C28.2499 19.0609 24.7237 19.0609 21.2394 19.0609C19.8961 19.0609 19.0565 18.2756 19.0565 16.9116C19.0565 12.6545 19.0565 8.35597 19.0565 4.0988C19.0565 2.77618 19.8541 1.99087 21.1974 1.99087C21.7012 1.99087 22.2049 1.99087 22.7087 1.99087ZM22.7507 3.23083C22.6667 3.1895 22.6247 3.1895 22.5827 3.1895C22.121 3.1895 21.7012 3.1895 21.2394 3.1895C20.4838 3.1895 20.2319 3.43749 20.2319 4.22279C20.2319 8.43863 20.2319 12.6545 20.2319 16.8703C20.2319 17.697 20.4838 17.9449 21.3234 17.9449C24.7656 17.9449 28.2079 17.9449 31.6502 17.9449C32.4897 17.9449 32.7416 17.697 32.7416 16.8703C32.7416 13.6878 32.7416 10.5052 32.7416 7.36401C32.7416 6.24805 32.7416 5.17342 32.7416 4.05746C32.7416 3.64415 32.6157 3.27216 32.1959 3.23083C31.5242 3.14816 30.8945 3.23083 30.2229 3.23083C30.0969 4.38812 29.7191 4.67744 28.5857 4.67744C27.1584 4.67744 25.7731 4.67744 24.3458 4.67744C23.2124 4.67744 22.8766 4.34679 22.7507 3.23083ZM23.968 3.47882C25.6472 3.47882 27.3263 3.47882 28.9635 3.47882C28.9635 2.85884 28.9635 2.2802 28.9635 1.70155C27.2844 1.70155 25.6472 1.70155 23.968 1.70155C23.968 2.2802 23.968 2.85884 23.968 3.47882Z" fill="white"/>
<path d="M26.4459 15.2996C25.4803 15.2996 24.5148 15.2996 23.5493 15.2996C23.1295 15.2996 22.8357 15.1756 22.7937 14.721C22.7937 14.349 23.0456 14.1423 23.5073 14.1423C25.4803 14.1423 27.4533 14.1423 29.4264 14.1423C29.9301 14.1423 30.182 14.349 30.14 14.721C30.098 15.1343 29.8461 15.2996 29.4264 15.2996C28.4608 15.2996 27.4533 15.2996 26.4459 15.2996Z" fill="white"/>
<path d="M26.4452 8.14923C25.4797 8.14923 24.5142 8.14923 23.5487 8.14923C23.1289 8.14923 22.835 8.02524 22.793 7.57059C22.7511 7.1986 23.0449 6.99194 23.5067 6.99194C25.4797 6.99194 27.4527 6.99194 29.4257 6.99194C29.9294 6.99194 30.1813 7.1986 30.1393 7.57059C30.0974 8.02524 29.8035 8.14923 29.3837 8.14923C28.4182 8.14923 27.4107 8.14923 26.4452 8.14923Z" fill="white"/>
<path d="M26.5298 10.5466C27.4953 10.5466 28.4608 10.5466 29.4264 10.5466C29.8461 10.5466 30.14 10.6293 30.182 11.1253C30.2239 11.4973 29.9301 11.7453 29.4264 11.7453C27.4953 11.7453 25.5223 11.7453 23.5913 11.7453C23.0456 11.7453 22.7937 11.5386 22.7937 11.1666C22.7937 10.7946 23.0456 10.588 23.5913 10.588C24.5568 10.5466 25.5223 10.5466 26.5298 10.5466Z" fill="white"/>
<path d="M6.04529 16.6637L7.51455 15.217L8.9838 16.6637" fill="white"/>
<path d="M6.04529 16.6637L7.51455 15.217L8.9838 16.6637" stroke="white" stroke-miterlimit="10" stroke-linecap="round" stroke-linejoin="round"/>
<path d="M7.51416 15.217V19.3089" stroke="white" stroke-miterlimit="10" stroke-linecap="round" stroke-linejoin="round"/>
<path d="M8.98368 31.5845L7.51442 33.0311L6.04517 31.5845" fill="white"/>
<path d="M8.98368 31.5845L7.51442 33.0311L6.04517 31.5845" stroke="white" stroke-miterlimit="10" stroke-linecap="round" stroke-linejoin="round"/>
<path d="M7.51428 33.0311V28.9392" stroke="white" stroke-miterlimit="10" stroke-linecap="round" stroke-linejoin="round"/>
</svg>
