<svg width="48" height="50" viewBox="0 0 48 50" fill="none" xmlns="http://www.w3.org/2000/svg">
<path d="M47.0069 20.9471C47.0069 23.7313 43.8912 26.9133 39.6486 27.0459C39.052 27.0459 38.7205 26.9133 38.9194 27.9077C39.2508 29.9627 39.1182 32.1504 37.5273 33.8739C37.1958 34.2054 37.1295 34.5368 37.1295 35.0009C37.0632 37.1222 36.2677 38.7795 34.1464 39.575C33.6824 39.7739 33.6161 40.039 33.4835 40.4368C32.6217 44.6132 28.1802 44.7457 26.1251 42.4918C25.3296 41.63 24.4015 41.8289 23.5398 42.2929C22.678 42.757 22.0813 43.4862 21.4184 44.2154C19.7611 46.0053 17.905 47.53 15.2533 47.53C14.9219 47.53 14.723 47.7951 14.4578 47.994C13.2646 48.9221 12.1376 49.7839 10.5466 49.9828C9.75113 50.049 9.08822 49.9165 8.35901 49.7176C5.77364 48.9221 4.05007 47.2648 3.18828 44.7457C3.12199 44.5469 3.0557 44.2817 3.12199 44.0828C3.38715 42.8233 2.92311 41.9615 2.19391 40.9008C0.735493 38.7795 0.735494 36.393 1.4647 33.9402C2.85682 29.3661 5.3759 25.4549 7.89497 21.5437C9.81742 18.5606 10.8118 15.3123 10.6792 11.7326C10.6129 9.81014 10.2815 7.95398 9.48597 6.16411C8.4916 3.71132 10.6792 0.330458 13.2646 0.264167C14.1264 0.264167 14.9882 0.197875 15.6511 0.728207C15.9162 0.927081 16.1814 0.927081 16.5129 0.728207C19.0982 -0.663914 21.4184 0.0652922 23.5398 1.85516C24.1364 2.3192 24.4678 2.45178 25.0645 1.92145C26.8543 0.264167 31.2959 0.463041 33.4835 2.78324C34.3453 3.71132 35.1408 4.70569 35.6048 5.89894C35.8037 6.36298 36.0688 6.56185 36.5992 6.69444C38.9194 7.29106 40.643 8.68318 41.6373 10.8708C41.8362 11.4011 42.1677 11.6663 42.6317 11.8652C45.4822 13.655 47.1395 16.0415 47.0069 20.9471ZM17.6398 44.7457C17.7724 44.6794 17.905 44.6794 17.8387 44.4806C18.1039 44.6794 18.3027 44.7457 18.4353 44.348C19.0319 44.1491 19.4297 43.6188 19.7611 43.1547C20.6892 42.0278 21.7499 40.9008 23.2083 40.4368C24.6667 39.9728 26.1251 39.8402 27.3184 41.166C28.1139 42.0941 29.2408 42.2267 30.2352 41.8952C31.2959 41.5637 31.6936 40.5031 31.6936 39.5087C31.6936 38.5143 32.0914 38.1166 32.9531 37.984C33.6823 37.8514 34.279 37.4537 34.6767 36.7908C34.8093 36.5919 35.0082 36.3267 34.8093 36.0616C34.6767 35.929 34.3453 35.929 34.1464 35.9953C33.152 36.5919 32.0251 36.393 30.8981 36.393C30.6329 36.393 30.3678 36.3267 30.1689 36.5919C28.4453 38.7132 26.2577 38.5143 24.0038 37.9177C23.4735 37.7851 23.3409 38.0503 23.0757 38.3155C21.4847 40.2379 19.8274 42.1604 18.1701 44.0828C18.0376 44.1491 17.8387 44.2817 17.7061 44.348C17.905 44.6794 17.905 44.7457 17.6398 44.7457ZM21.6836 26.383C21.6836 25.9853 21.6836 25.5212 21.6836 25.1235C21.6173 24.4606 21.9488 24.0628 22.6117 24.0628C23.2083 24.0628 23.4735 24.4606 23.5398 24.9909C23.606 26.2504 23.7386 27.51 23.7386 28.7695C23.6723 30.8245 23.0757 32.747 21.4847 34.2054C20.6229 35.0009 19.5623 35.6638 18.5016 36.0616C16.1814 36.9896 13.7949 37.7188 11.4747 38.5143C9.75113 39.0447 8.02755 39.575 6.63543 40.8345C5.64106 41.7626 4.5804 42.8233 4.97815 44.2817C5.64106 46.9334 9.55226 49.585 12.4691 47.2648C13.5297 46.403 14.5904 45.4749 15.5185 44.4806C18.8331 41.0997 21.8825 37.52 24.6004 33.6088C24.9982 33.0784 25.3959 32.747 25.9925 33.1447C26.5229 33.5425 26.4566 34.0728 26.1251 34.5369C25.86 34.8683 25.6611 35.2661 25.3959 35.5975C24.6667 36.4593 25.5285 36.6582 25.9262 36.5919C27.1858 36.393 28.5116 36.393 29.2408 35.0672C29.506 34.6031 29.97 34.338 30.3678 34.6031C31.2296 35.0009 32.0914 34.7357 32.8869 34.5369C36.9306 33.5425 37.8587 30.1616 36.7318 26.7145C36.5329 26.1841 36.2014 25.7201 36.5329 25.1898C36.9969 24.5931 37.5935 24.8583 38.1239 24.9909C41.1733 25.5875 44.289 23.9965 45.0182 21.146C45.8137 18.0966 45.0182 15.1797 41.6373 13.5887C40.7092 13.1247 40.2452 12.6607 39.8475 11.7326C38.2565 8.02027 33.0857 7.0259 30.6329 10.0753C29.97 10.8708 29.3071 11.136 28.379 11.0697C27.9813 11.0697 27.5835 11.0697 27.2521 11.0697C23.6723 11.136 20.8218 14.6494 21.7499 18.0966C22.0151 19.2235 21.6836 19.4887 20.7555 19.8201C17.3747 20.9471 15.9825 24.8583 18.3027 27.5762C19.4297 28.9021 20.0263 30.1616 19.8937 31.8189C19.8937 32.0178 19.6949 32.4155 20.1589 32.4818C20.4241 32.5481 20.6892 32.3492 20.8218 32.1504C21.3521 31.4212 21.7499 30.6919 21.7499 29.7639C21.6836 28.7032 21.6836 27.51 21.6836 26.383ZM8.55789 23.8639C9.81742 23.7976 10.8118 23.9302 11.7399 24.328C12.3365 24.5931 12.9331 24.9246 12.668 25.6538C12.4028 26.4493 11.7399 26.3167 11.1433 26.0515C8.35901 25.0572 7.03318 26.2504 5.90623 28.2392C4.5804 30.5594 3.45344 33.0121 2.92311 35.6638C2.59166 37.1885 2.79053 38.7795 3.71861 40.1716C4.05007 40.702 4.31523 40.7682 4.71298 40.2379C5.44219 39.3098 6.43656 38.7132 7.49722 38.1829C7.89497 37.984 8.22643 37.8514 8.4916 37.4537C9.55226 35.7964 10.8781 34.4043 12.4028 33.1447C13.1983 32.4818 13.5297 31.62 13.132 30.6919C12.7342 29.7639 13.1983 29.4987 13.8612 29.1672C15.1207 28.6369 15.7174 27.5762 15.5185 26.1841C15.0544 22.8696 16.3803 20.1516 19.2308 18.5606C19.6949 18.2954 19.8937 18.0303 19.8274 17.4999C19.6949 15.9752 20.0926 14.5168 20.8218 13.191C21.0207 12.7933 21.0207 12.3955 20.9544 11.9978C20.4903 10.2079 19.6949 8.5506 18.1039 7.55623C16.5792 6.76073 15.5848 5.83265 15.7174 4.04278C15.7174 3.77761 15.5185 3.44616 15.3859 3.18099C14.9882 2.25291 13.132 1.72258 12.3365 2.3192C11.3421 3.1147 10.7455 4.6394 11.2095 5.96523C12.3365 9.01464 12.8005 12.1303 12.005 15.3786C11.8725 15.9089 11.9388 16.1078 12.5354 15.9089C13.9275 15.3786 15.3196 15.5775 16.7117 15.5775C17.3084 15.5775 17.6398 15.7764 17.6398 16.4393C17.6398 17.1022 17.3084 17.4337 16.6454 17.4337C15.8499 17.4337 15.1207 17.4337 14.3252 17.4337C12.9994 17.4999 11.8062 17.964 11.1433 19.1572C10.414 20.6156 9.68484 22.2066 8.55789 23.8639ZM27.7161 9.27981C28.1802 9.14722 28.7768 9.61126 29.2408 9.01464C30.2352 7.7551 31.561 7.0259 33.152 6.76073C33.5498 6.69444 33.8149 6.56186 33.5498 6.09782C32.0914 3.1147 27.5172 0.993373 25.1308 4.50682C24.6004 5.30232 24.0038 5.16973 23.4072 4.50682C22.7443 3.71132 22.0813 3.04841 21.1533 2.51808C20.0926 1.92145 19.0319 1.72258 17.8387 2.18662C17.6398 2.25291 17.3746 2.38549 17.3084 2.58437C17.1095 2.84953 17.9713 5.30232 18.3027 5.50119C20.1589 6.69444 21.551 8.28543 22.3465 10.3405C22.5454 10.9371 22.7443 11.0034 23.2746 10.6719C24.5341 9.74384 25.9925 9.27981 27.7161 9.27981ZM11.4084 36.5919C13.7949 35.929 15.8499 35.1998 17.905 34.338C18.2364 34.2054 18.6342 34.0728 18.4353 33.5425C18.0376 32.5481 17.9713 31.5537 17.905 30.4931C17.8387 29.8302 17.3084 29.3661 16.6454 29.101C16.314 30.029 14.9219 30.1616 14.9219 31.4874C14.9882 32.8133 14.3252 33.8076 13.3309 34.6694C12.8005 35.1998 12.1376 35.7301 11.4084 36.5919Z" fill="#3858A4"/>
<path d="M39.3171 20.4168C36.6655 20.1516 34.8093 21.3449 33.3509 23.3336C32.6217 24.3943 31.8262 25.4549 30.9644 26.383C30.5003 26.9133 30.7655 26.9796 31.2295 27.0459C31.8925 27.0459 32.4891 27.0459 33.152 27.2448C33.8149 27.4437 33.8812 27.9077 33.8149 28.5043C33.6823 29.101 33.152 29.2335 32.7543 29.101C30.3015 28.3718 28.6442 29.6976 27.1195 31.2223C27.0532 31.2886 27.0532 31.3549 26.9869 31.4212C26.5891 31.7526 25.9925 32.0841 25.5948 31.7526C25.0644 31.2886 25.197 30.692 25.6611 30.1616C26.4566 29.2335 27.2521 28.3055 27.9813 27.3111C29.3071 25.7201 29.3734 24.4606 28.1801 22.8033C27.915 22.4055 27.5835 22.0741 27.3184 21.7426C26.9869 21.3449 26.9869 20.8808 27.3846 20.4831C27.8487 20.0853 28.3127 20.1516 28.7105 20.5494C29.3734 21.2786 29.97 22.0078 30.3015 22.9359C30.5666 23.6651 30.8318 23.5988 31.2958 23.0684C32.5554 21.5437 32.4891 18.6269 31.1633 16.9696C30.8981 16.6382 30.5666 16.373 30.6992 15.909C30.8318 15.1135 31.6273 14.9146 32.2902 15.5112C33.3509 16.5056 33.8812 17.7651 34.0138 19.1572C34.0801 19.7539 34.2127 19.9527 34.743 19.6213C36.4666 18.4943 38.4553 18.6269 40.3778 18.6932C40.9744 18.6932 41.5047 19.0247 41.5047 19.7539C41.4384 20.4168 40.9744 20.6157 40.3115 20.5494C40.0463 20.4168 39.6486 20.4168 39.3171 20.4168Z" fill="#3858A4"/>
</svg>
