<svg width="30" height="39" viewBox="0 0 30 39" fill="none" xmlns="http://www.w3.org/2000/svg">
<path d="M28.041 9.22852H23.6862C21.9442 9.22852 20.541 7.82529 20.541 6.08335V1.72852" stroke="white" stroke-width="1.45161" stroke-miterlimit="10"/>
<path d="M17.0648 13.4224H24.6036" stroke="white" stroke-width="1.04411" stroke-miterlimit="10" stroke-linecap="round" stroke-linejoin="round"/>
<path d="M17.0649 15.5085H24.6037" stroke="white" stroke-width="1.04411" stroke-miterlimit="10" stroke-linecap="round" stroke-linejoin="round"/>
<path d="M17.0649 17.5947H24.6037" stroke="white" stroke-width="1.04411" stroke-miterlimit="10" stroke-linecap="round" stroke-linejoin="round"/>
<path d="M12.0862 14.276C12.0862 16.3622 10.3793 18.0691 8.2931 18.0691C6.2069 18.0691 4.5 16.3622 4.5 14.276C4.5 12.1898 6.2069 10.4829 8.2931 10.4829V14.276H12.0862Z" stroke="white" stroke-width="1.04411" stroke-miterlimit="10" stroke-linecap="round" stroke-linejoin="round"/>
<path d="M9.81067 12.5216V8.72852C11.8969 8.72852 13.6038 10.4354 13.6038 12.5216H9.81067Z" stroke="white" stroke-width="1.04411" stroke-miterlimit="10" stroke-linecap="round" stroke-linejoin="round"/>
<path d="M16.1165 23.1423V30.7285H25.5992" stroke="white" stroke-width="1.04411" stroke-miterlimit="10" stroke-linecap="round" stroke-linejoin="round"/>
<path d="M23.5129 24.7544V30.6811" stroke="white" stroke-width="1.04411" stroke-miterlimit="10" stroke-linecap="round" stroke-linejoin="round"/>
<path d="M20.8107 26.6035V30.6811" stroke="white" stroke-width="1.04411" stroke-miterlimit="10" stroke-linecap="round" stroke-linejoin="round"/>
<path d="M18.108 28.2629V30.681" stroke="white" stroke-width="1.04411" stroke-miterlimit="10" stroke-linecap="round" stroke-linejoin="round"/>
<path d="M4.97424 26.5562H12.513" stroke="white" stroke-width="1.04411" stroke-miterlimit="10" stroke-linecap="round" stroke-linejoin="round"/>
<path d="M4.97412 28.6423H12.5129" stroke="white" stroke-width="1.04411" stroke-miterlimit="10" stroke-linecap="round" stroke-linejoin="round"/>
<path d="M4.97412 30.6812H12.5129" stroke="white" stroke-width="1.04411" stroke-miterlimit="10" stroke-linecap="round" stroke-linejoin="round"/>
<path d="M28.5 9.02339V36.0962C28.5 36.8724 27.8618 37.5032 27.0764 37.5032H2.92364C2.13818 37.5032 1.5 36.8724 1.5 36.0962V2.91018C1.5 2.1339 2.13818 1.50317 2.92364 1.50317H20.7927L28.5 9.02339Z" stroke="white" stroke-width="1.47273" stroke-miterlimit="10"/>
</svg>
