<svg width="48" height="50" viewBox="0 0 48 50" fill="none" xmlns="http://www.w3.org/2000/svg">
<path d="M27.3113 9.83768C29.6018 9.16974 31.7014 8.70218 33.9283 8.96936C39.909 9.6373 43.7264 13.2442 45.6988 19.0553C46.4623 21.1927 46.5896 23.4637 46.8441 25.7347C47.1622 28.0056 46.9713 30.2098 46.7804 32.3473C46.2714 37.5572 44.2991 42.0992 40.2271 45.4389C37.1095 47.9771 33.4829 49.1793 29.6654 49.7137C26.1025 50.1813 22.5395 49.9809 18.9765 49.7805C14.9045 49.5133 11.2143 48.0438 7.90585 45.5725C6.18799 44.3034 4.72463 42.6335 3.64302 40.8969C2.43415 38.8931 1.86151 36.4217 1.47977 34.0171C0.779897 30.1431 0.843526 26.2022 1.5434 22.395C2.17964 18.8549 3.51576 15.4484 6.12437 12.9102C10.26 8.96936 14.9682 8.30142 20.1854 9.90448C21.5851 10.3052 21.5215 10.372 21.5851 8.83577C21.776 5.89684 22.6667 3.15828 24.2574 0.686903C24.5755 0.219345 24.9572 -0.181415 25.5298 0.0857607C26.8023 0.753701 28.0748 1.55523 29.3473 2.28996C30.3017 2.82431 30.1108 3.55905 29.6654 4.29378C28.5838 5.76325 27.7567 7.63348 27.3113 9.83768ZM24.0029 47.9103C26.2933 48.1774 28.5202 47.977 30.747 47.5763C36.6005 46.5076 41.2451 43.6354 43.7265 37.6908C44.8081 35.1526 45.0626 32.4141 45.2534 29.6087C45.3807 28.1392 45.1262 26.6698 45.0626 25.2671C44.9989 23.0629 44.5536 20.9255 43.7901 18.9217C42.1995 14.7804 39.5272 11.9083 35.0735 11.04C31.2561 10.3052 27.884 10.9064 24.8936 13.5781C24.2574 14.1125 23.812 14.0457 23.1757 13.5114C19.74 10.4388 15.7953 10.0381 11.6597 11.3071C8.03309 12.4426 5.74261 15.1812 4.34287 18.7881C3.07038 22.061 2.75226 25.4675 2.75226 28.9408C2.75226 31.6793 3.13401 34.4179 4.08838 36.956C6.50611 43.6354 11.6597 46.5076 17.8949 47.7099C19.9309 48.1774 22.0305 48.2442 24.0029 47.9103ZM25.5935 2.08958C25.1481 1.95599 25.1481 2.42355 25.0208 2.62393C23.7483 5.02851 23.4302 7.70027 23.1757 10.372C23.1121 11.1068 23.4939 11.6411 24.0029 11.7079C24.5755 11.7079 25.2753 11.3072 25.339 10.5724C25.6571 8.16783 26.5478 5.96363 27.6931 3.82622C27.8203 3.62584 28.0748 3.42546 27.8203 3.22508C27.1205 2.82431 26.4206 2.28996 25.5935 2.08958Z" fill="#3858A4"/>
<path d="M42.6449 29.1411C42.4541 33.6163 41.5633 37.624 38.7639 40.9637C36.7915 43.3015 34.3101 44.7041 31.2562 44.5705C28.7112 44.4369 26.5479 43.2347 24.8301 41.2308C24.2575 40.5629 24.003 40.6297 23.4303 41.2308C21.7125 43.1011 19.6765 44.1698 17.0679 44.437C13.3777 44.7709 10.9599 42.8339 8.92396 40.1621C6.25173 36.6889 5.42461 32.5476 5.74273 28.1392C5.99723 24.1316 7.26973 20.5247 9.94196 17.5858C11.4689 15.8491 13.3777 14.6468 15.6045 14.5132C18.5313 14.3797 21.3307 15.0476 23.3667 17.5858C24.003 18.3873 24.3211 18.3873 25.021 17.5858C27.3751 14.7804 30.5563 14.0457 33.8648 14.7136C36.9188 15.3816 38.9547 17.5858 40.4817 20.3243C41.9451 23.1297 42.3905 26.2022 42.6449 29.1411ZM40.8635 29.8091C40.7998 26.4694 40.2272 23.5972 38.7002 20.9923C35.5826 15.6487 29.8564 14.58 25.8481 19.1888C24.0666 21.1926 24.1302 21.1926 22.4124 19.2556C20.3128 16.851 17.7678 15.7823 14.7138 16.5839C12.3597 17.185 10.7054 18.8549 9.5602 20.9923C6.6971 26.269 6.63348 31.6793 9.05122 37.0896C9.81471 38.8263 10.9599 40.2289 12.4233 41.2976C14.5229 42.8339 16.6861 43.0343 19.1039 42.0992C20.8217 41.4312 22.0306 40.2289 23.1122 38.7595C23.9393 37.6908 24.3211 37.6908 25.1482 38.7595C25.2755 38.9598 25.4663 39.1602 25.6572 39.4274C29.4747 44.0362 34.4374 43.6354 37.8731 39.227C39.9727 36.4217 40.7362 33.082 40.8635 29.8091Z" fill="#3858A4"/>
<path d="M22.8575 27.0038C21.4578 26.8702 20.2489 27.0706 18.9764 27.271C18.7219 27.3378 18.4674 27.271 18.2129 27.2042C17.1313 26.937 16.3678 25.8683 16.4951 24.9332C16.5587 24.1985 17.5767 23.5305 18.5947 23.5305C19.7399 23.5305 20.5034 24.2652 21.2669 25C21.8395 25.4675 22.4121 26.0019 22.8575 27.0038Z" fill="#3858A4"/>
<path d="M25.1482 27.0706C26.2298 25.5343 27.1842 24.332 28.5203 23.6641C28.7748 23.5305 29.0293 23.5305 29.2838 23.4637C30.5563 23.3301 31.5106 24.0648 31.5743 25.0667C31.6379 26.1355 30.6835 27.0706 29.5383 27.2042C28.1385 27.3377 26.8024 26.7366 25.1482 27.0706Z" fill="#3858A4"/>
<path d="M22.9213 31.5457C21.776 33.0819 20.758 34.351 19.231 34.9522C18.213 35.3529 17.5132 34.8186 16.8769 34.2842C16.3679 33.8835 16.4316 33.1487 16.6861 32.4808C17.0678 31.6125 18.3403 30.9445 19.4219 31.2117C20.4399 31.4789 21.5215 31.6793 22.9213 31.5457Z" fill="#3858A4"/>
<path d="M28.0112 31.3452C28.6474 31.3452 29.2837 31.3452 29.8563 31.3452C30.747 31.412 31.5741 32.3471 31.5741 33.2822C31.5741 34.1506 30.8743 34.8185 29.8563 34.8185C28.3929 34.8853 26.1024 33.4158 25.4026 31.9464C25.2117 31.4788 25.4026 31.3452 25.8479 31.3452C26.6114 31.3452 27.3113 31.3452 28.0112 31.3452Z" fill="#3858A4"/>
</svg>
