<svg width="32" height="76" viewBox="0 0 32 76" fill="none" xmlns="http://www.w3.org/2000/svg">
<path d="M2.70601 57.9521C2.70601 53.0521 1.60602 48.2521 0.906018 43.4521C0.306018 39.6521 0.406012 35.6521 1.30601 31.8521C2.10601 28.4521 3.80599 25.5521 5.50599 22.6521C7.30599 19.6521 7.90601 16.2521 8.70601 12.9521C8.70601 12.7521 8.80601 12.4521 8.70601 12.2521C6.90601 9.85209 8.00601 7.15209 7.80601 4.55209C7.70601 2.95209 9.60599 0.952089 11.506 0.752089C14.806 0.552089 18.106 -0.0479173 21.406 1.15208C23.306 1.85208 24.506 3.15209 24.406 5.25209C24.306 7.65209 24.906 9.95208 23.606 12.3521C22.906 13.5521 23.606 15.6521 24.206 17.1521C25.206 19.4521 26.206 21.8521 27.406 24.0521C31.306 31.3521 32.506 38.9521 30.506 46.9521C29.306 51.8521 29.406 56.7521 29.706 61.7521C29.806 63.0521 30.306 64.4521 30.706 65.7521C32.406 72.1521 29.006 75.6521 22.706 75.9521C20.806 76.0521 18.906 75.8521 17.306 74.7521C16.406 74.1521 15.706 74.3521 14.706 74.7521C10.906 76.7521 5.60602 75.9521 2.40602 73.2521C1.40602 72.4521 1.30601 71.3521 1.20601 70.3521C0.906005 66.5521 1.906 62.9521 2.606 59.2521C2.906 58.7521 2.90601 58.3521 2.70601 57.9521ZM16.206 47.0521C12.706 47.0521 9.30601 47.0521 5.80601 47.0521C5.30601 47.0521 4.406 46.7521 4.606 47.7521C4.806 49.0521 4.70599 50.3521 5.00599 51.5521C6.20599 56.8521 5.00602 61.9521 3.90602 66.9521C3.40602 69.2521 4.30599 71.9521 6.50599 72.4521C8.80599 73.0521 11.306 73.1521 13.606 72.0521C15.206 71.2521 16.906 71.1521 18.406 72.0521C20.006 73.0521 21.706 73.1521 23.406 72.9521C28.106 72.4521 29.106 70.1521 27.806 65.8521C27.306 64.2521 27.006 62.6521 26.906 61.0521C26.606 56.6521 26.506 52.2521 27.306 47.9521C27.506 46.6521 27.006 46.9521 26.406 46.9521C22.906 47.0521 19.606 47.0521 16.206 47.0521ZM15.806 44.3521C19.406 44.3521 23.006 44.2521 26.506 44.3521C27.706 44.3521 28.206 44.0521 28.406 42.7521C29.006 37.5521 28.306 32.5521 26.106 27.6521C25.806 26.9521 25.406 26.5521 24.606 26.5521C18.906 26.5521 13.206 26.5521 7.40602 26.5521C6.60602 26.5521 6.20601 26.8521 5.80601 27.5521C4.00601 31.5521 3.106 35.7521 3.106 40.1521C3.106 41.0521 3.70599 41.7521 3.50599 42.6521C3.20599 43.9521 3.90599 44.1521 5.00599 44.1521C8.70599 44.3521 12.206 44.3521 15.806 44.3521ZM7.80601 24.0521C12.906 24.0521 17.706 24.0521 22.406 24.0521C23.806 24.0521 24.306 23.9521 23.506 22.4521C22.006 19.6521 20.906 16.5521 20.506 13.3521C20.406 12.4521 19.906 12.6521 19.406 12.6521C17.706 12.6521 15.906 12.6521 14.206 12.6521C11.406 12.6521 11.406 12.6521 10.906 15.2521C10.406 18.2521 9.50601 21.0521 7.80601 24.0521ZM15.806 9.95209C16.306 9.95209 16.806 9.95209 17.406 9.95209C21.706 9.95209 21.606 9.95209 21.606 5.55209C21.606 4.05209 20.806 3.25209 19.406 3.25209C17.106 3.25209 14.906 3.25209 12.606 3.25209C11.606 3.25209 10.706 3.75209 10.506 4.75209C10.306 6.35209 9.906 8.25208 10.606 9.65208C11.006 10.4521 12.806 9.85209 14.006 9.95209C14.706 9.95209 15.306 9.95209 15.806 9.95209Z" fill="#3858A4"/>
<path d="M10.906 59.6521C10.206 59.5521 9.60601 59.1521 9.70601 58.3521C9.70601 57.4521 10.306 57.0521 11.206 57.0521C12.006 57.1521 12.406 57.6521 12.406 58.4521C12.306 59.2521 11.706 59.5521 10.906 59.6521Z" fill="#3858A4"/>
<path d="M20.906 53.2521C20.706 54.0521 20.406 54.6521 19.506 54.6521C18.606 54.6521 18.106 54.1521 18.106 53.2521C18.106 52.3521 18.706 51.8521 19.606 51.9521C20.406 51.9521 20.806 52.5521 20.906 53.2521Z" fill="#3858A4"/>
<path d="M18.806 62.5521C19.806 62.6521 20.206 63.0521 20.206 63.8521C20.206 64.6521 19.706 65.1521 18.906 65.1521C18.106 65.1521 17.406 64.6521 17.406 63.8521C17.406 62.9521 18.106 62.6521 18.806 62.5521Z" fill="#3858A4"/>
</svg>
