<svg width="53" height="76" viewBox="0 0 53 76" fill="none" xmlns="http://www.w3.org/2000/svg">
<path d="M11.2071 11.3222C11.2071 9.92216 11.107 8.52216 11.107 7.12216C11.107 6.02216 11.507 5.32216 13.007 5.32216C14.607 5.32216 16.107 4.52216 17.807 4.32216C22.407 3.72216 26.9071 2.72216 31.4071 1.92216C34.2071 1.42216 37.0071 0.922156 39.9071 0.522156C42.1071 0.222156 42.307 0.522152 42.307 2.72215C42.307 3.02215 42.307 3.32216 42.307 3.62216C41.907 6.72216 42.907 9.42216 44.607 12.0222C47.007 15.5222 48.907 19.3222 51.307 22.8222C52.507 24.5222 52.807 26.3222 52.807 28.2222C52.807 41.0222 52.807 53.8221 52.807 66.6221C52.807 69.2221 52.507 69.1222 50.307 69.5222C45.107 70.5222 40.0071 71.6222 34.9071 72.9222C31.4071 73.8222 27.707 74.2222 24.307 75.4222C23.707 75.6222 23.0071 75.6222 22.4071 75.4222C16.2071 72.8222 9.70707 70.8222 3.40707 68.5222C0.407068 67.4222 0.807031 68.2222 0.807031 64.8222C0.807031 52.2222 0.807031 39.6222 0.807031 26.9222C0.807031 25.6222 1.10702 24.6222 2.10702 23.6222C5.10702 20.3222 7.90703 16.9222 10.807 13.5222C11.207 13.0222 11.3071 12.5222 11.4071 11.9222C11.6071 11.9222 11.9071 11.8222 11.9071 11.5222C11.7071 11.4222 11.5071 11.3222 11.2071 11.3222ZM15.007 14.4222C14.907 14.9222 15.107 15.2222 15.307 15.5222C17.507 19.5222 19.807 23.5222 22.007 27.4222C23.707 30.4222 23.707 30.4222 27.107 29.7222C33.807 28.2222 40.5071 26.8222 47.2071 25.3222C49.2071 24.9222 49.2071 24.8222 48.2071 23.1222C45.9071 19.2222 43.5071 15.3222 41.2071 11.4222C40.6071 10.4222 39.907 10.0222 38.807 10.2222C37.807 10.4222 36.707 10.4222 35.807 10.7222C32.507 11.9222 29.007 11.9222 25.607 12.5222C22.007 13.1222 18.507 13.9222 15.007 14.4222ZM50.007 47.8222C42.907 52.4222 36.1071 56.8222 29.4071 61.3222C27.7071 62.4222 25.307 63.1222 24.507 64.9222C23.807 66.7222 24.307 69.0221 24.307 71.1221C24.307 71.2221 24.307 71.2222 24.307 71.3222C24.207 72.4222 24.707 72.4222 25.507 72.2222C32.807 70.6222 40.1071 69.0222 47.4071 67.4222C50.0071 66.8222 49.9071 66.8222 49.9071 64.2222C50.0071 58.8222 50.007 53.5222 50.007 47.8222ZM50.007 32.3222C49.607 32.5222 49.407 32.5221 49.307 32.6221C41.207 38.2221 33.207 43.8222 25.107 49.4222C24.507 49.8222 24.307 50.3222 24.307 51.0222C24.307 53.9222 24.307 56.9222 24.307 59.8222C24.307 60.7222 24.4071 61.2222 25.4071 60.5222C33.3071 55.3222 41.3071 50.1222 49.2071 44.9222C49.7071 44.5222 50.007 44.2222 50.007 43.5222C50.007 39.9222 50.007 36.3222 50.007 32.3222ZM3.40707 27.6222C3.40707 31.8222 3.40707 35.9222 3.40707 39.9222C3.40707 40.7222 3.70707 41.0222 4.40707 41.2222C9.70707 43.0222 15.0071 44.9222 20.2071 46.8222C21.3071 47.2222 21.607 47.0222 21.607 45.8222C21.507 42.7222 21.607 39.7221 21.607 36.6221C21.607 32.9221 21.607 32.9222 18.007 32.0222C17.807 31.9222 17.6071 31.7222 17.4071 31.7222C12.8071 30.4222 8.20707 29.0222 3.40707 27.6222ZM3.40707 43.8222C3.40707 47.2222 3.50707 50.3222 3.40707 53.4222C3.40707 54.6222 3.90707 55.1222 4.90707 55.4222C10.1071 57.2222 15.207 59.1222 20.307 61.0222C21.207 61.3222 21.607 61.3222 21.607 60.3222C21.607 57.2222 21.607 54.2221 21.607 51.1221C21.607 50.5221 21.407 50.2222 20.807 50.0222C15.107 48.0222 9.40707 45.9222 3.40707 43.8222ZM24.307 46.6221C25.107 46.0221 25.7071 45.7222 26.2071 45.4222C33.6071 40.2222 41.107 35.0222 48.507 29.8222C49.207 29.3222 50.4071 29.0222 49.9071 27.9222C49.5071 26.9222 48.607 28.0222 48.007 27.9222C47.907 27.9222 47.907 27.9222 47.807 27.9222C40.407 29.5222 33.007 31.1222 25.507 32.7222C24.907 32.8222 24.307 32.9222 24.307 33.8222C24.407 38.0222 24.307 42.1221 24.307 46.6221ZM3.40707 57.8222C3.40707 60.3222 3.40707 62.6222 3.40707 64.8222C3.40707 65.4222 3.60706 65.7222 4.20706 65.9222C9.70706 67.8222 15.2071 69.8222 20.7071 71.7222C21.4071 72.0222 21.607 71.8222 21.607 71.0222C21.607 69.0222 21.607 67.0222 21.607 64.9222C21.607 64.3222 21.307 64.0222 20.807 63.8222C15.107 62.0222 9.40707 59.9222 3.40707 57.8222ZM39.507 5.72215C39.507 3.52215 39.107 3.32215 37.007 3.72215C33.907 4.32215 30.707 4.82216 27.607 5.42216C23.307 6.32216 18.807 6.72216 14.507 7.82216C12.307 8.32216 13.807 9.82216 13.507 10.8222C13.107 12.0222 14.207 11.6222 14.807 11.7222C17.207 11.8222 19.307 10.6222 21.607 10.4222C26.907 9.92216 32.107 8.42216 37.507 7.92216C38.807 7.62216 40.107 7.32215 39.507 5.72215ZM19.7071 29.6221C19.7071 29.3221 19.707 29.1222 19.607 28.9222C17.307 24.8222 15.007 20.7222 12.807 16.7222C12.307 15.8222 12.0071 16.0222 11.4071 16.7222C9.40707 19.1222 7.40707 21.5222 5.40707 23.8222C4.50707 24.8222 4.60707 25.1222 5.90707 25.4222C10.5071 26.8222 15.0071 28.2221 19.7071 29.6221Z" fill="white"/>
</svg>
