<svg width="48" height="50" viewBox="0 0 48 50" fill="none" xmlns="http://www.w3.org/2000/svg">
<path d="M10.2039 7.25083C10.2039 6.31933 10.1154 5.38783 10.1154 4.45633C10.1154 3.72444 10.4693 3.25869 11.7966 3.25869C13.2124 3.25869 14.5397 2.7264 16.044 2.59333C20.1143 2.19412 24.0963 1.52877 28.0781 0.996481C30.5558 0.663803 33.0334 0.331119 35.5995 0.0649761C37.5462 -0.134631 37.7231 0.064974 37.7231 1.52876C37.7231 1.72837 37.7231 1.92798 37.7231 2.12759C37.3692 4.19019 38.254 5.98665 39.7583 7.71658C41.882 10.0453 43.5632 12.5737 45.6869 14.9024C46.7487 16.0335 47.0142 17.2312 47.0142 18.4954C47.0142 27.0119 47.0142 35.5285 47.0142 44.045C47.0142 45.775 46.7487 45.7085 44.802 45.9746C40.2008 46.64 35.688 47.3718 31.1752 48.2368C28.0781 48.8356 24.8041 49.1018 21.7956 49.9002C21.2647 50.0333 20.6453 50.0333 20.1144 49.9002C14.6282 48.1703 8.8766 46.8396 3.30196 45.3092C0.647366 44.5773 1.00128 45.1096 1.00128 42.8474C1.00128 34.4639 1.00128 26.0804 1.00128 17.6304C1.00128 16.7654 1.26673 16.1001 2.15159 15.4347C4.80618 13.239 7.28381 10.9768 9.84992 8.71461C10.2039 8.38193 10.2924 8.04926 10.3809 7.65005C10.5578 7.65005 10.8233 7.58351 10.8233 7.3839C10.6463 7.31736 10.4693 7.25083 10.2039 7.25083ZM13.5664 9.31344C13.4779 9.64612 13.6548 9.84572 13.8318 10.0453C15.7785 12.7068 17.8137 15.3682 19.7604 17.9631C21.2647 19.9591 21.2647 19.9591 24.2732 19.4934C30.2018 18.4954 36.1304 17.5639 42.059 16.5658C43.8287 16.2997 43.8287 16.2331 42.9439 15.102C40.9087 12.5071 38.785 9.91226 36.7498 7.31737C36.2189 6.65201 35.5995 6.38586 34.6261 6.51893C33.7412 6.652 32.7679 6.652 31.9715 6.85161C29.0515 7.65004 25.9544 7.65004 22.9459 8.04926C19.7604 8.44847 16.6634 8.98076 13.5664 9.31344ZM44.5366 31.5363C38.2541 34.597 32.237 37.5246 26.3084 40.5187C24.8042 41.2506 22.6805 41.7163 21.9726 42.9139C21.3532 44.1116 21.7956 45.6419 21.7956 47.0391C21.7956 47.1057 21.7956 47.1057 21.7956 47.1722C21.7071 47.9041 22.1495 47.9041 22.8574 47.771C29.3169 46.7065 35.7765 45.6419 42.236 44.5773C44.5366 44.1781 44.4481 44.1781 44.4481 42.4482C44.5366 38.8553 44.5366 35.3289 44.5366 31.5363ZM44.5366 21.2233C44.1827 21.3564 44.0057 21.3564 43.9172 21.4229C36.7498 25.1489 29.6709 28.8749 22.5035 32.6009C21.9725 32.8671 21.7956 33.1997 21.7956 33.6655C21.7956 35.595 21.7956 37.5911 21.7956 39.5206C21.7956 40.1194 21.8841 40.4521 22.769 39.9864C29.7594 36.5265 36.8383 33.0667 43.8287 29.6068C44.2711 29.3407 44.5366 29.1411 44.5366 28.6753C44.5366 26.28 44.5366 23.8847 44.5366 21.2233ZM3.30196 18.0961C3.30196 20.8906 3.30196 23.6186 3.30196 26.28C3.30196 26.8123 3.56742 27.0119 4.18682 27.145C8.8766 28.3426 13.5664 29.6068 18.1677 30.871C19.141 31.1371 19.4064 31.0041 19.4064 30.2056C19.318 28.143 19.4064 26.147 19.4064 24.0843C19.4064 21.6225 19.4065 21.6225 16.221 21.0237C16.044 20.9572 15.867 20.8241 15.6901 20.8241C11.6197 19.9591 7.54931 19.0276 3.30196 18.0961ZM3.30196 28.8749C3.30196 31.1371 3.39044 33.1997 3.30196 35.2623C3.30196 36.0608 3.74439 36.3935 4.62925 36.5931C9.23055 37.7907 13.7433 39.0549 18.2561 40.3191C19.0525 40.5187 19.4064 40.5187 19.4064 39.8533C19.4064 37.7907 19.4064 35.7946 19.4064 33.732C19.4064 33.3328 19.2295 33.1332 18.6986 33.0001C13.6548 31.6694 8.61114 30.2722 3.30196 28.8749ZM21.7956 30.7379C22.5035 30.3387 23.0344 30.1391 23.4768 29.9395C30.0248 26.4796 36.6613 23.0198 43.2093 19.5599C43.8287 19.2272 44.8906 19.0276 44.4481 18.2958C44.0942 17.6304 43.2978 18.3623 42.7669 18.2958C42.6784 18.2958 42.6784 18.2958 42.5899 18.2958C36.0419 19.3603 29.4939 20.4249 22.8574 21.4895C22.3265 21.556 21.7956 21.6225 21.7956 22.2214C21.8841 25.0159 21.7956 27.7438 21.7956 30.7379ZM3.30196 38.1899C3.30196 39.8533 3.30196 41.3836 3.30196 42.8474C3.30196 43.2466 3.47892 43.4462 4.00984 43.5793C8.87659 44.8435 13.7433 46.1742 18.6101 47.4384C19.2295 47.638 19.4064 47.5049 19.4064 46.9726C19.4064 45.6419 19.4064 44.3112 19.4064 42.9139C19.4064 42.5147 19.141 42.3151 18.6986 42.1821C13.6548 40.9844 8.61114 39.5872 3.30196 38.1899ZM35.2455 3.52483C35.2455 2.06104 34.8916 1.92797 33.0334 2.19412C30.2903 2.59333 27.4587 2.92602 24.7156 3.32523C20.9107 3.92405 16.9288 4.19019 13.1239 4.92208C11.1772 5.25476 12.5045 6.25279 12.2391 6.91815C11.8851 7.71658 12.8585 7.45043 13.3894 7.51697C15.513 7.5835 17.3713 6.78508 19.4064 6.65201C24.0962 6.31933 28.6975 5.3213 33.4758 4.98862C34.6261 4.78901 35.7764 4.5894 35.2455 3.52483ZM17.7252 19.4268C17.7252 19.2272 17.7252 19.0942 17.6367 18.9611C15.6015 16.2331 13.5663 13.5052 11.6196 10.8438C11.1772 10.2449 10.9118 10.378 10.3809 10.8438C8.61114 12.4406 6.84141 14.0375 5.07169 15.5678C4.27531 16.2331 4.3638 16.4328 5.51412 16.6324C9.58449 17.5639 13.5664 18.4953 17.7252 19.4268Z" fill="#3858A4"/>
</svg>
