<svg width="47" height="50" viewBox="0 0 47 50" fill="none" xmlns="http://www.w3.org/2000/svg">
<path d="M20.5999 47.6063C20.8451 44.6211 21.5811 41.636 21.9081 38.6509C22.1534 36.7934 22.2351 34.936 22.4804 33.0786C22.8893 29.4964 23.1346 25.9806 23.4616 22.3985C23.6252 20.8064 23.4617 19.2807 23.5434 17.6886C23.6252 15.8312 23.9523 14.0401 25.1787 12.3817C26.2417 10.9223 27.6317 10.0599 29.9211 10.1926C32.4558 10.3253 34.9088 10.2589 37.4435 10.1926C38.67 10.1926 39.6511 10.5243 40.4688 11.254C41.9406 12.5807 42.6764 14.1064 42.9217 15.8975C43.4123 18.551 43.0035 21.1381 43.1671 23.7915C43.3306 26.445 43.8212 29.0984 43.9029 31.7519C43.9847 33.8746 44.3117 35.9311 44.557 37.9875C44.8023 40.7736 45.2929 43.4934 45.7835 46.2795C45.947 47.0756 46.1924 47.8716 46.4377 48.6676C46.683 49.53 46.3559 50.0607 45.2112 49.9944C41.9406 49.9944 38.67 49.928 35.3994 49.928C35.3994 49.331 35.3994 48.8003 35.3994 48.2033C37.7706 48.2033 40.1417 48.1369 42.5129 48.2033C43.6576 48.2033 44.0665 48.1369 43.8212 47.0092C43.2488 44.6211 42.9218 42.233 42.5947 39.8449C42.5129 39.1152 42.3494 38.9162 41.3682 38.9162C35.9717 38.9162 30.5752 38.9825 25.1787 38.9162C24.1976 38.9162 23.7069 39.3142 23.7887 39.9112C23.8705 40.9063 23.5434 41.835 23.4616 42.83C23.2981 44.4221 22.8893 46.0142 22.5622 47.6726C21.9899 47.6063 21.254 47.6063 20.5999 47.6063ZM33.2735 36.9924C35.8899 36.9924 38.5882 36.9924 41.2047 36.9924C42.1041 36.9924 42.3494 36.8598 42.1859 36.0637C41.6953 33.742 41.7771 31.3539 41.3682 29.0321C41.1229 27.5064 41.2047 25.9143 41.1229 24.3886C41.1229 23.8579 40.8776 23.7252 40.3053 23.7252C35.6447 23.7252 31.0658 23.7252 26.4052 23.7252C25.9146 23.7252 25.5876 23.7252 25.5876 24.2559C25.5876 25.3173 25.2605 26.3123 25.2605 27.44C25.3422 29.1648 24.6881 33.941 24.4428 36.0637C24.3611 36.8598 24.7699 36.9924 25.6693 36.9924C28.1223 36.9924 30.657 36.9924 33.2735 36.9924ZM33.2735 22.0004C35.4811 22.0004 37.607 22.0004 39.8147 22.0004C40.6323 22.0004 41.0412 21.8678 40.9594 21.1381C40.8776 20.0104 41.0411 18.8826 40.8776 17.8213C40.7141 16.2955 40.5506 14.7035 39.5694 13.3104C38.9153 12.448 38.0976 11.9173 36.7076 11.9837C34.5817 12.1163 32.4558 12.1163 30.3299 11.9837C28.4493 11.851 27.3864 12.647 26.7322 13.9074C26.4052 14.4381 26.2417 15.0351 26.0781 15.6322C25.5875 17.4232 25.9146 19.2807 25.751 21.1381C25.6693 21.9341 26.0781 22.0668 26.9775 22.0668C29.0217 21.9341 31.1476 22.0004 33.2735 22.0004Z" fill="#3858A4"/>
<path d="M1.63026 47.6063C1.22144 47.142 1.22144 46.5449 1.22144 45.9479C1.38497 41.9677 1.54853 37.9876 1.71206 34.0074C1.87559 31.5529 1.5485 28.9658 2.44791 26.5114C3.02027 24.9856 4.08326 23.7253 5.1462 22.5312C6.12739 21.4035 7.35386 20.4084 8.41681 19.3471C8.74387 19.0154 8.98913 18.6837 8.98913 18.2193C9.07089 14.7699 9.23445 11.3867 9.47975 7.93722C9.64328 6.14614 9.56151 4.35506 9.47975 2.49764C9.47975 1.36993 10.0521 0.640226 11.2786 0.175872C12.6686 -0.354818 14.631 0.37488 15.2033 1.56893C15.3668 2.03329 15.3668 2.56398 15.3668 3.02833C15.3668 8.06989 15.3668 13.1114 15.3668 18.0867C15.3668 20.0104 14.631 21.5362 12.7504 22.7966C10.7062 24.1233 9.8068 26.047 9.72503 28.1698C9.5615 31.1549 10.0521 34.2064 10.0521 37.1915C10.0521 39.9777 10.4609 42.8301 10.7062 45.6162C10.788 46.2796 10.788 47.0093 10.1339 47.54C9.31621 47.341 8.49856 47.4737 7.6809 47.4737C8.41679 46.744 8.58034 45.8816 8.41681 44.8865C8.08975 41.9014 7.76267 38.9826 7.6809 35.9975C7.59914 33.344 7.43562 30.6906 7.43562 28.0371C7.43562 25.3837 8.66208 23.0619 11.1968 21.3371C12.505 20.4748 12.9956 19.4797 12.9956 18.153C12.9956 13.1115 12.9956 8.06989 12.9956 3.09467C12.9956 2.89566 12.9956 2.69665 12.9956 2.49764C12.9956 2.16596 12.9139 1.83428 12.4233 1.83428C11.8509 1.83428 11.8509 2.16596 11.7692 2.43131C11.6874 2.89566 11.6874 3.36001 11.6874 3.82437C11.5239 7.34019 11.3604 10.7897 11.2786 14.3055C11.0333 14.4382 11.0333 14.5708 11.2786 14.7699C11.6874 17.6887 10.8697 20.1431 8.08973 22.1995C6.12737 23.6589 4.73737 25.5827 4.16501 27.8381C3.75619 29.5628 3.83795 31.2876 3.75619 33.0123C3.59266 37.0589 3.51088 41.1054 3.18382 45.1519C3.10205 45.9479 3.18383 46.744 3.75619 47.4737C3.26559 47.54 2.44791 47.6063 1.63026 47.6063Z" fill="#3858A4"/>
<path d="M33.3553 8.5343C32.2106 8.5343 31.0659 8.5343 29.9212 8.5343C28.7764 8.5343 28.1223 8.06994 28.2859 7.07489C28.6947 5.0848 28.94 3.09472 29.1035 1.10463C29.1853 0.507606 29.7576 0.308594 30.4117 0.308594C32.2923 0.308594 34.0911 0.308594 35.9717 0.308594C36.7076 0.308594 37.1983 0.573942 37.28 1.10463C37.5253 3.16106 37.6888 5.28382 37.9341 7.34024C38.0159 8.20262 37.6071 8.5343 36.5441 8.5343C35.5629 8.5343 34.4183 8.5343 33.3553 8.5343ZM33.2735 6.74321C33.7641 6.74321 34.3365 6.67688 34.8271 6.74321C35.7265 6.80955 35.89 6.47787 35.7265 5.88085C35.4812 4.81947 35.3176 3.75808 35.1541 2.63036C35.1541 2.36502 35.0723 2.16601 34.7453 2.16601C33.6006 2.16601 32.7012 2.09967 31.5565 2.23235C30.9841 2.36502 30.8206 4.42145 30.8206 4.55412C30.1664 6.80956 30.4935 6.74321 33.2735 6.74321Z" fill="#3858A4"/>
<path d="M35.481 48.137C35.481 48.734 35.481 49.2647 35.481 49.8617C33.7639 49.8617 23.4615 49.8617 21.7444 49.8617C21.0085 49.8617 20.1091 49.3973 20.5997 47.5399C21.0085 47.5399 21.4174 46.7439 21.8262 46.7439C22.0715 46.7439 22.3985 47.5399 22.6438 47.5399C22.7256 48.2696 23.4615 48.0706 23.9521 48.0706C27.7951 48.137 31.638 48.137 35.481 48.137Z" fill="#3858A4"/>
<path d="M4.16503 6.74321C3.34738 6.74321 2.5297 6.67687 1.79382 6.74321C0.894402 6.80955 0.485596 6.61054 0.485596 5.74817C0.485596 4.81946 1.05793 4.8858 1.79382 4.8858C3.59265 4.8858 5.39152 4.95214 7.19035 4.8858C8.08977 4.8858 8.17151 5.21748 8.08975 5.81451C8.08975 6.3452 8.08977 6.80955 7.19035 6.74321C6.20917 6.74321 5.14621 6.74321 4.16503 6.74321Z" fill="#3858A4"/>
<path d="M4.32857 12.1165C3.51092 12.1165 2.69324 12.1165 1.95736 12.1165C1.22147 12.1165 0.567361 12.1828 0.485596 11.2541C0.485596 10.1927 1.13971 10.2591 1.95736 10.3254C3.59266 10.3254 5.22794 10.3917 6.94501 10.3254C7.9262 10.2591 7.92623 10.7234 8.008 11.2541C8.008 11.9175 7.84443 12.2491 6.94501 12.1828C5.96383 12.0501 5.14622 12.1165 4.32857 12.1165Z" fill="#3858A4"/>
<path d="M4.32857 4.08966C3.51092 4.08966 2.61147 4.08966 1.79382 4.08966C1.05793 4.08966 0.485596 4.156 0.485596 3.22729C0.485596 2.43126 0.894421 2.29858 1.71207 2.29858C3.51091 2.29858 5.30972 2.36492 7.10855 2.29858C8.00797 2.29858 8.08975 2.63027 8.08975 3.22729C8.08975 3.75798 8.08977 4.22234 7.19035 4.156C6.20917 4.02333 5.30975 4.08966 4.32857 4.08966Z" fill="#3858A4"/>
<path d="M1.30322 46.8767C2.12087 46.8767 3.26556 47.5401 4.08321 47.5401C5.39145 48.4688 6.61794 48.2698 7.92618 47.5401C8.74383 47.5401 10.0521 46.545 10.8698 46.6777C10.788 47.4737 10.0521 48.3361 8.58029 48.9331C7.59911 49.3312 6.12737 49.4638 5.80031 49.4638C3.34735 49.4638 1.30322 48.0708 1.30322 46.8767Z" fill="#3858A4"/>
<path d="M4.24677 9.39655C3.42912 9.39655 2.52972 9.33021 1.71207 9.39655C0.812656 9.46288 0.485596 9.26388 0.485596 8.46784C0.485596 7.73814 0.812626 7.53913 1.63028 7.60547C3.42911 7.67181 5.30972 7.67181 7.10855 7.60547C8.00797 7.60547 8.08975 7.93716 8.08975 8.53418C8.08975 9.06487 8.08977 9.52922 7.19035 9.46289C6.20917 9.39655 5.22795 9.39655 4.24677 9.39655Z" fill="#3858A4"/>
</svg>
