<svg width="57" height="76" viewBox="0 0 57 76" fill="none" xmlns="http://www.w3.org/2000/svg">
<path d="M24.9561 71.8765C25.2561 67.3765 26.1561 62.8765 26.5561 58.3765C26.8561 55.5765 26.956 52.7765 27.256 49.9765C27.756 44.5765 28.0561 39.2765 28.4561 33.8765C28.6561 31.4765 28.4561 29.1765 28.5561 26.7765C28.6561 23.9765 29.0561 21.2765 30.5561 18.7765C31.8561 16.5765 33.5561 15.2765 36.3561 15.4765C39.4561 15.6765 42.4561 15.5765 45.5561 15.4765C47.0561 15.4765 48.256 15.9765 49.256 17.0765C51.056 19.0765 51.956 21.3765 52.256 24.0765C52.856 28.0765 52.3561 31.9765 52.5561 35.9765C52.7561 39.9765 53.3561 43.9765 53.4561 47.9765C53.5561 51.1765 53.956 54.2765 54.256 57.3765C54.556 61.5765 55.156 65.6765 55.756 69.8765C55.956 71.0765 56.2561 72.2765 56.5561 73.4765C56.8561 74.7765 56.4561 75.5765 55.0561 75.4765C51.0561 75.4765 47.0561 75.3765 43.0561 75.3765C43.0561 74.4765 43.0561 73.6765 43.0561 72.7765C45.9561 72.7765 48.856 72.6765 51.756 72.7765C53.156 72.7765 53.6561 72.6765 53.3561 70.9765C52.6561 67.3765 52.2561 63.7765 51.8561 60.1765C51.7561 59.0765 51.5561 58.7765 50.3561 58.7765C43.7561 58.7765 37.1561 58.8765 30.5561 58.7765C29.3561 58.7765 28.7561 59.3765 28.8561 60.2765C28.9561 61.7765 28.5561 63.1765 28.4561 64.6765C28.2561 67.0765 27.7561 69.4765 27.3561 71.9765C26.6561 71.8765 25.7561 71.8765 24.9561 71.8765ZM40.4561 55.8765C43.6561 55.8765 46.9561 55.8765 50.1561 55.8765C51.2561 55.8765 51.5561 55.6765 51.3561 54.4765C50.7561 50.9765 50.8561 47.3765 50.3561 43.8765C50.0561 41.5765 50.1561 39.1765 50.0561 36.8765C50.0561 36.0765 49.7561 35.8765 49.0561 35.8765C43.3561 35.8765 37.7561 35.8765 32.0561 35.8765C31.4561 35.8765 31.0561 35.8765 31.0561 36.6765C31.0561 38.2765 30.6561 39.7765 30.6561 41.4765C30.7561 44.0765 29.9561 51.2765 29.6561 54.4765C29.5561 55.6765 30.0561 55.8765 31.1561 55.8765C34.1561 55.8765 37.2561 55.8765 40.4561 55.8765ZM40.4561 33.2765C43.1561 33.2765 45.7561 33.2765 48.4561 33.2765C49.4561 33.2765 49.9561 33.0765 49.8561 31.9765C49.7561 30.2765 49.956 28.5765 49.756 26.9765C49.556 24.6765 49.3561 22.2765 48.1561 20.1765C47.3561 18.8765 46.3561 18.0765 44.6561 18.1765C42.0561 18.3765 39.4561 18.3765 36.8561 18.1765C34.5561 17.9765 33.2561 19.1765 32.4561 21.0765C32.0561 21.8765 31.8561 22.7765 31.6561 23.6765C31.0561 26.3765 31.456 29.1765 31.256 31.9765C31.156 33.1765 31.656 33.3765 32.756 33.3765C35.256 33.1765 37.8561 33.2765 40.4561 33.2765Z" fill="white"/>
<path d="M1.7561 71.8765C1.2561 71.1765 1.2561 70.2765 1.2561 69.3765C1.4561 63.3765 1.65614 57.3765 1.85614 51.3765C2.05614 47.6765 1.6561 43.7765 2.7561 40.0765C3.4561 37.7765 4.75615 35.8765 6.05615 34.0765C7.25615 32.3765 8.75615 30.8765 10.0562 29.2765C10.4562 28.7765 10.7561 28.2765 10.7561 27.5765C10.8561 22.3765 11.0561 17.2765 11.3561 12.0765C11.5561 9.37651 11.4561 6.67651 11.3561 3.87651C11.3561 2.17651 12.0562 1.07651 13.5562 0.376511C15.2562 -0.423489 17.6561 0.676509 18.3561 2.47651C18.5561 3.17651 18.5562 3.97651 18.5562 4.67651C18.5562 12.2765 18.5562 19.8765 18.5562 27.3765C18.5562 30.2765 17.6561 32.5765 15.3561 34.4765C12.8561 36.4765 11.7561 39.3765 11.6561 42.5765C11.4561 47.0765 12.0562 51.6765 12.0562 56.1765C12.0562 60.3765 12.5561 64.6765 12.8561 68.8765C12.9561 69.8765 12.9561 70.9765 12.1561 71.7765C11.1561 71.4765 10.1561 71.6765 9.15613 71.6765C10.0561 70.5765 10.2562 69.2765 10.0562 67.7765C9.65615 63.2765 9.25613 58.8765 9.15613 54.3765C9.05613 50.3765 8.85614 46.3765 8.85614 42.3765C8.85614 38.3765 10.3561 34.8765 13.4561 32.2765C15.0561 30.9765 15.6561 29.4765 15.6561 27.4765C15.6561 19.8765 15.6561 12.2765 15.6561 4.77651C15.6561 4.47651 15.6561 4.17651 15.6561 3.87651C15.6561 3.37651 15.5561 2.87651 14.9561 2.87651C14.2561 2.87651 14.2561 3.37651 14.1561 3.77651C14.0561 4.47651 14.0562 5.17651 14.0562 5.87651C13.8562 11.1765 13.6562 16.3765 13.5562 21.6765C13.2562 21.8765 13.2562 22.0765 13.5562 22.3765C14.0562 26.7765 13.0561 30.4765 9.65613 33.5765C7.25613 35.7765 5.55614 38.6765 4.85614 42.0765C4.35614 44.6765 4.45614 47.2765 4.35614 49.8765C4.15614 55.9765 4.05613 62.0765 3.65613 68.1765C3.55613 69.3765 3.65614 70.5765 4.35614 71.6765C3.75614 71.7765 2.7561 71.8765 1.7561 71.8765Z" fill="white"/>
<path d="M40.5561 12.9765C39.1561 12.9765 37.7561 12.9765 36.3561 12.9765C34.9561 12.9765 34.1561 12.2765 34.3561 10.7765C34.8561 7.77654 35.1561 4.77654 35.3561 1.77654C35.4561 0.876543 36.1561 0.576538 36.9561 0.576538C39.2561 0.576538 41.4561 0.576538 43.7561 0.576538C44.6561 0.576538 45.2561 0.976543 45.3561 1.77654C45.6561 4.87654 45.8561 8.07654 46.1561 11.1765C46.2561 12.4765 45.7561 12.9765 44.4561 12.9765C43.2561 12.9765 41.8561 12.9765 40.5561 12.9765ZM40.4561 10.2765C41.0561 10.2765 41.7561 10.1765 42.3561 10.2765C43.4561 10.3765 43.6561 9.87655 43.4561 8.97655C43.1561 7.37655 42.9561 5.77654 42.7561 4.07654C42.7561 3.67654 42.6561 3.37654 42.2561 3.37654C40.8561 3.37654 39.7561 3.27654 38.3561 3.47654C37.6561 3.67654 37.4561 6.77655 37.4561 6.97655C36.6561 10.3765 37.0561 10.2765 40.4561 10.2765Z" fill="white"/>
<path d="M43.1561 72.6765C43.1561 73.5765 43.1561 74.3765 43.1561 75.2765C41.0561 75.2765 28.4561 75.2765 26.3561 75.2765C25.4561 75.2765 24.3561 74.5765 24.9561 71.7765C25.4561 71.7765 25.9561 70.5765 26.4561 70.5765C26.7561 70.5765 27.1561 71.7765 27.4561 71.7765C27.5561 72.8765 28.4562 72.5765 29.0562 72.5765C33.7562 72.6765 38.4561 72.6765 43.1561 72.6765Z" fill="white"/>
<path d="M4.8562 10.2765C3.8562 10.2765 2.85618 10.1765 1.95618 10.2765C0.856177 10.3765 0.356201 10.0765 0.356201 8.77653C0.356201 7.37653 1.05618 7.47654 1.95618 7.47654C4.15618 7.47654 6.35621 7.57654 8.55621 7.47654C9.65621 7.47654 9.75619 7.97653 9.65619 8.87653C9.65619 9.67653 9.65621 10.3765 8.55621 10.2765C7.35621 10.2765 6.0562 10.2765 4.8562 10.2765Z" fill="white"/>
<path d="M5.05621 18.3765C4.05621 18.3765 3.05619 18.3765 2.15619 18.3765C1.25619 18.3765 0.456201 18.4765 0.356201 17.0765C0.356201 15.4765 1.15619 15.5765 2.15619 15.6765C4.15619 15.6765 6.15616 15.7765 8.25616 15.6765C9.45616 15.5765 9.45621 16.2765 9.55621 17.0765C9.55621 18.0765 9.35616 18.5765 8.25616 18.4765C7.05616 18.2765 6.05621 18.3765 5.05621 18.3765Z" fill="white"/>
<path d="M5.05621 6.27654C4.05621 6.27654 2.95618 6.27654 1.95618 6.27654C1.05618 6.27654 0.356201 6.37654 0.356201 4.97654C0.356201 3.77654 0.856201 3.57654 1.8562 3.57654C4.0562 3.57654 6.25618 3.67654 8.45618 3.57654C9.55618 3.57654 9.65619 4.07654 9.65619 4.97654C9.65619 5.77654 9.65621 6.47654 8.55621 6.37654C7.35621 6.17654 6.25621 6.27654 5.05621 6.27654Z" fill="white"/>
<path d="M1.3562 70.7765C2.3562 70.7765 3.75616 71.7765 4.75616 71.7765C6.35616 73.1765 7.85618 72.8765 9.45618 71.7765C10.4562 71.7765 12.0562 70.2765 13.0562 70.4765C12.9562 71.6765 12.0562 72.9765 10.2562 73.8765C9.05616 74.4765 7.2562 74.6765 6.8562 74.6765C3.8562 74.6765 1.3562 72.5765 1.3562 70.7765Z" fill="white"/>
<path d="M4.95618 14.2765C3.95618 14.2765 2.8562 14.1765 1.8562 14.2765C0.756201 14.3765 0.356201 14.0765 0.356201 12.8765C0.356201 11.7765 0.756165 11.4765 1.75616 11.5765C3.95616 11.6765 6.25618 11.6765 8.45618 11.5765C9.55618 11.5765 9.65619 12.0765 9.65619 12.9765C9.65619 13.7765 9.65621 14.4765 8.55621 14.3765C7.35621 14.2765 6.15618 14.2765 4.95618 14.2765Z" fill="white"/>
</svg>
