<svg width="64" height="77" viewBox="0 0 64 77" fill="none" xmlns="http://www.w3.org/2000/svg">
<path d="M6.10437 27.5321C8.50437 27.8321 11.6044 28.4321 14.8044 28.5321C18.0044 28.6321 21.1044 29.1321 24.2044 29.3321C27.5044 29.5321 30.9044 29.9321 34.2044 29.6321C39.1044 29.2321 44.0044 29.0321 48.9044 28.4321C52.4044 28.0321 55.9044 27.6321 59.5044 27.5321C63.0044 27.4321 64.2044 29.7321 63.3044 32.6321C61.8044 37.6321 60.0044 42.5321 58.4044 47.4321C57.9044 49.0321 57.7044 50.7321 56.7044 52.1321C56.4044 52.5321 56.8044 52.9321 57.1044 53.3321C60.4044 56.9321 61.7044 61.2321 61.5044 66.0321C61.5044 66.5321 61.6044 66.9321 61.9044 67.4321C65.0044 71.2321 64.1044 74.5321 59.5044 76.0321C57.1044 76.8321 54.7044 76.3321 53.0044 74.4321C51.8044 73.1321 51.2044 73.0321 49.9044 74.3321C47.7044 76.7321 44.0044 77.0321 41.5044 75.5321C41.3044 75.4321 41.1044 75.3321 40.9044 75.1321C40.1044 74.5321 39.8044 73.0321 38.8044 73.0321C38.0044 73.1321 37.4044 74.2321 36.6044 74.9321C34.2044 77.0321 29.0044 76.6321 27.1044 73.9321C26.4044 72.9321 26.0044 72.9321 25.2044 74.0321C23.1044 76.8321 18.0044 77.8321 15.5044 74.6321L15.4044 74.5321C13.7044 72.8321 13.8044 72.9321 12.0044 74.7321C10.5044 76.2321 8.60436 76.8321 6.40436 76.5321C3.60436 76.0321 1.7044 74.5321 1.0044 71.7321C0.704396 70.3321 1.70436 69.2321 2.40436 68.1321C2.90436 67.4321 3.10437 66.7321 3.10437 65.9321C3.20437 61.3321 4.50436 57.2321 7.40436 53.6321C8.00436 52.9321 8.00441 52.3321 7.70441 51.4321C6.10441 46.8321 4.6044 42.3321 3.0044 37.7321C2.5044 36.1321 2.0044 34.4321 1.5044 32.8321C0.504396 29.3321 1.70437 27.5321 6.10437 27.5321ZM6.80438 30.3321C3.40438 30.3321 3.30437 30.4321 4.10437 32.4321C6.60437 38.8321 8.50438 45.5321 10.8044 52.0321C11.2044 53.0321 11.0044 53.7321 10.3044 54.5321C7.10438 57.8321 5.80437 61.8321 6.10437 66.4321C6.20437 67.4321 5.90441 68.1321 5.20441 68.9321C3.20441 71.1321 3.4044 72.2321 6.0044 73.5321C7.2044 74.1321 8.50437 73.6321 9.60437 72.9321C10.8044 72.1321 11.5044 70.9321 12.3044 69.8321C13.1044 68.6321 14.0044 68.6321 14.9044 69.8321C15.4044 70.5321 16.0044 71.3321 16.6044 72.0321C18.7044 74.4321 21.1044 74.2321 23.2044 72.0321C23.8044 71.3321 24.3044 70.5321 24.9044 69.8321C25.8044 68.6321 26.8044 68.5321 27.6044 69.8321C28.2044 70.8321 28.9044 71.7321 29.7044 72.5321C31.5044 74.1321 33.3044 74.2321 35.1044 72.6321C35.7044 72.0321 36.3044 71.4321 36.8044 70.7321C38.6044 68.2321 38.8044 68.2321 40.6044 70.8321C41.4044 71.9321 42.3044 72.9321 43.5044 73.5321C44.0044 73.8321 44.4044 73.8321 45.1044 73.7321C47.1044 73.5321 48.3044 72.2321 49.3044 70.8321C51.1044 68.3321 51.4044 68.3321 53.1044 70.7321C53.8044 71.7321 54.7044 72.7321 55.8044 73.3321C57.1044 74.0321 59.1044 73.5321 60.4044 71.9321C61.5044 70.6321 60.2044 69.8321 59.6044 69.1321C58.7044 68.1321 58.5044 67.2321 58.6044 66.0321C58.7044 61.9321 57.8044 58.0321 54.8044 54.9321C53.7044 53.8321 53.4044 52.8321 54.1044 51.4321C54.3044 50.9321 54.4044 50.4321 54.6044 49.9321C56.5044 44.0321 58.5044 38.2321 60.4044 32.3321C61.0044 30.5321 60.8044 30.3321 59.0044 30.3321C58.2044 30.3321 57.4044 30.2321 56.6044 30.4321C51.5044 31.3321 46.4044 31.4321 41.3044 32.0321C34.3044 32.7321 27.2044 32.5321 20.2044 31.7321C18.5044 31.5321 16.8044 31.5321 15.0044 31.3321C12.1044 31.0321 9.10438 30.6321 6.80438 30.3321Z" fill="white"/>
<path d="M42.6044 23.7321C37.0044 23.7321 33.8044 19.5321 35.0044 14.1321C36.6044 6.93211 41.5045 3.03211 48.2045 1.23211C53.0045 -0.0678877 57.0044 3.73211 57.4044 8.73211C57.8044 13.8321 52.6044 20.4321 48.0044 22.3321C46.1044 23.0321 44.4044 24.1321 42.6044 23.7321ZM54.5044 9.13211C54.5044 6.33211 53.6044 4.63212 51.8044 4.33212C49.9044 4.03212 47.9044 3.93212 46.0044 4.83212C41.6044 7.03212 38.6045 10.2321 37.7045 15.2321C37.0045 19.1321 40.0044 22.0321 43.8044 21.1321C46.0044 20.6321 47.8044 19.6321 49.4044 18.3321C52.3044 16.0321 54.4044 13.1321 54.5044 9.13211Z" fill="white"/>
<path d="M16.1045 13.7321C11.5045 13.1321 8.70444 18.3321 9.90444 22.4321C10.1044 22.9321 10.2044 23.4321 10.4044 23.9321C11.2044 25.3321 9.90449 25.3321 9.20449 25.7321C8.20449 26.3321 8.10447 25.5321 7.80447 24.8321C6.90447 22.2321 6.50448 19.6321 7.50448 16.8321C9.00448 12.8321 12.7045 10.8321 17.0045 11.1321C21.2045 11.4321 24.6045 13.1321 27.6045 15.5321C30.9045 18.0321 33.0045 21.5321 34.2045 25.6321C34.4045 26.3321 33.8045 26.5321 33.3045 26.7321C32.6045 27.0321 32.0045 27.0321 31.8045 26.2321C31.1045 23.5321 29.5045 21.2321 27.7045 19.3321C25.4045 16.8321 22.7045 14.8321 19.3045 14.2321C18.2045 13.8321 17.0045 13.3321 16.1045 13.7321Z" fill="white"/>
<path d="M26.4044 20.9321C26.4044 21.5321 26.1044 21.9322 25.7044 22.2322C24.1044 23.7322 22.6044 25.3321 21.0044 26.9321C20.3044 27.6321 19.6044 28.0322 18.8044 27.2322C17.9044 26.3322 18.4044 25.6321 19.1044 24.9321C20.7044 23.3321 22.3044 21.7321 23.9044 20.1321C24.4044 19.6321 24.9044 19.3321 25.6044 19.6321C26.2044 19.9321 26.4044 20.3321 26.4044 20.9321Z" fill="white"/>
<path d="M19.1044 16.7321C20.5044 16.7321 20.9045 17.5321 20.2045 18.5321C18.7045 20.6321 16.8044 22.3321 14.9044 23.9321C14.5044 24.3321 13.7045 24.7321 13.2045 24.1321C12.8045 23.6321 12.4044 22.8321 13.0044 22.2321C14.7044 20.4321 16.5044 18.7321 18.3044 16.9321C18.5044 16.8321 18.9044 16.8321 19.1044 16.7321Z" fill="white"/>
<path d="M32.8043 58.1321C28.6043 58.1321 25.1043 57.6321 21.8043 56.0321C21.0043 55.6321 20.1043 55.2321 19.4043 54.6321C13.1043 50.0321 13.5043 44.4321 19.6043 40.2321C24.1043 37.1321 29.3043 36.5321 34.7043 37.1321C37.9043 37.4321 40.9043 37.9321 43.6043 39.5321C46.9043 41.3321 49.4043 43.7321 49.2043 47.9321C49.1043 50.5321 47.7043 52.4321 45.8043 53.9321C41.9043 57.1321 37.1043 58.0321 32.8043 58.1321ZM31.2043 55.3321C32.7043 55.5321 34.1043 55.1321 35.5043 55.0321C38.5043 54.8321 41.3043 53.9321 43.8043 52.1321C47.6043 49.4321 47.6043 45.4321 43.7043 42.7321C37.6043 38.5321 26.8043 38.7321 21.2043 42.5321C16.5043 45.7321 16.6043 49.1321 21.2043 52.3321C24.1043 54.5321 27.6043 55.2321 31.2043 55.3321Z" fill="white"/>
<path d="M24.4043 66.5321C19.8043 66.5321 15.2043 66.5321 10.5043 66.5321C9.40433 66.5321 9.20435 66.1321 9.20435 65.1321C9.20435 64.1321 9.40433 63.7321 10.5043 63.7321C19.9043 63.7321 29.2043 63.8321 38.6043 63.7321C39.8043 63.7321 39.9043 64.1321 39.9043 65.1321C39.9043 66.1321 39.7043 66.5321 38.6043 66.5321C33.9043 66.5321 29.1043 66.5321 24.4043 66.5321Z" fill="white"/>
<path d="M49.5043 63.8321C50.2043 63.8321 51.0043 63.9321 51.7043 63.8321C53.2043 63.6321 53.6043 64.3321 53.4043 65.6321C53.3043 66.2321 53.2043 66.5321 52.5043 66.5321C50.5043 66.5321 48.5043 66.5321 46.5043 66.5321C45.5043 66.5321 45.4043 66.0321 45.4043 65.2321C45.4043 64.4321 45.4043 63.7321 46.5043 63.7321C47.5043 63.8321 48.5043 63.8321 49.5043 63.8321Z" fill="white"/>
<path d="M49.0044 16.8321C48.4044 16.8321 48.0044 16.5321 47.6044 16.1321C45.9044 14.4321 44.2044 12.7321 42.5044 10.9321C41.8044 10.2321 41.5044 9.43209 42.3044 8.73209C43.0044 8.03209 43.8044 8.3321 44.4044 9.0321C46.3044 10.9321 48.1044 12.8321 49.9044 14.7321C50.3044 15.1321 50.3044 15.5321 50.2044 15.9321C49.9044 16.5321 49.5044 16.8321 49.0044 16.8321Z" fill="white"/>
<path d="M39.9044 13.8322C39.9044 12.6322 40.7044 12.1322 41.7044 12.8322C43.2044 13.9322 44.7044 15.1322 45.9044 16.5322C46.4044 17.0322 46.5044 17.9321 45.9044 18.2321C45.4044 18.5321 44.7044 19.3322 43.8044 18.3322C42.8044 17.1322 41.6044 16.0321 40.4044 14.9321C40.0044 14.6321 39.8044 14.3322 39.9044 13.8322Z" fill="white"/>
<path d="M51.1043 12.6321C50.6043 12.6321 50.2043 12.4321 49.9043 12.0321C48.8043 10.9321 47.7043 9.83211 46.6043 8.73211C46.0043 8.03211 45.7043 7.3321 46.4043 6.6321C47.1043 5.9321 47.9044 6.13211 48.5044 6.83211C49.6044 7.93211 50.8043 9.13211 51.9043 10.2321C52.4043 10.7321 52.5044 11.2321 52.3044 11.8321C52.1044 12.3321 51.7043 12.6321 51.1043 12.6321Z" fill="white"/>
</svg>
