<svg width="47" height="50" viewBox="0 0 47 50" fill="none" xmlns="http://www.w3.org/2000/svg">
<path d="M4.26532 17.5536C6.02509 17.7519 8.29814 18.1485 10.6445 18.2146C12.9909 18.2807 15.2639 18.6111 17.537 18.7433C19.9567 18.8755 22.4497 19.1399 24.8694 18.9416C28.4622 18.6772 32.0551 18.545 35.6479 18.1485C38.2143 17.8841 40.7806 17.6197 43.4203 17.5536C45.9866 17.4875 46.8665 19.0077 46.2066 20.9245C45.1067 24.2294 43.7869 27.4681 42.6137 30.7069C42.2471 31.7644 42.1005 32.888 41.3672 33.8134C41.1472 34.0778 41.4405 34.3422 41.6605 34.6066C44.0802 36.9861 45.0334 39.8282 44.8868 43.0009C44.8868 43.3314 44.9601 43.5957 45.18 43.9262C47.4531 46.4379 46.7932 48.6191 43.4203 49.6106C41.6605 50.1393 39.9007 49.8088 38.6542 48.553C37.7743 47.6937 37.3344 47.6277 36.3812 48.4869C34.768 50.0732 32.0551 50.2715 30.222 49.2801C30.0753 49.214 29.9287 49.1479 29.782 49.0157C29.1954 48.6191 28.9755 47.6276 28.2422 47.6276C27.6556 47.6937 27.2157 48.4208 26.6291 48.8835C24.8693 50.2715 21.0565 50.0071 19.6633 48.2225C19.1501 47.5615 18.8568 47.5616 18.2702 48.2886C16.7304 50.1393 12.9909 50.8003 11.1578 48.6852L11.0844 48.6191C9.83792 47.4955 9.91127 47.5616 8.59144 48.7513C7.49159 49.7427 6.09841 50.1393 4.48528 49.941C2.43221 49.6106 1.03908 48.6191 0.525818 46.7684C0.305846 45.843 1.03906 45.116 1.55233 44.3889C1.91894 43.9262 2.0656 43.4635 2.0656 42.9348C2.13893 39.8943 3.09213 37.1843 5.21852 34.8049C5.65846 34.3422 5.6585 33.9456 5.43853 33.3507C4.26534 30.3103 3.16548 27.3359 1.9923 24.2955C1.62568 23.2379 1.25906 22.1143 0.892437 21.0567C0.159199 18.7433 1.03907 17.5536 4.26532 17.5536ZM4.77859 19.4043C2.28558 19.4043 2.21225 19.4704 2.79884 20.7923C4.63194 25.0225 6.0251 29.451 7.71155 33.7473C8.00484 34.4083 7.8582 34.871 7.34493 35.3997C4.99857 37.5809 4.04535 40.2248 4.26532 43.2653C4.33864 43.9262 4.1187 44.3889 3.60543 44.9177C2.13895 46.3718 2.28559 47.0989 4.19201 47.9581C5.0719 48.3547 6.02509 48.0242 6.83165 47.5615C7.71154 47.0328 8.22482 46.2396 8.81141 45.5126C9.398 44.7194 10.0579 44.7194 10.7178 45.5126C11.0844 45.9752 11.5244 46.504 11.9643 46.9667C13.5041 48.553 15.2639 48.4208 16.8037 46.9667C17.2437 46.504 17.6103 45.9752 18.0502 45.5126C18.7101 44.7194 19.4434 44.6533 20.0299 45.5126C20.4699 46.1735 20.9832 46.7684 21.5698 47.2972C22.8896 48.3547 24.2094 48.4208 25.5292 47.3633C25.9692 46.9667 26.4091 46.5701 26.7758 46.1074C28.0956 44.455 28.2422 44.455 29.5621 46.1735C30.1486 46.9006 30.8086 47.5616 31.6885 47.9581C32.0551 48.1564 32.3484 48.1564 32.8616 48.0903C34.3281 47.9581 35.208 47.0989 35.9412 46.1735C37.2611 44.5211 37.481 44.5211 38.7275 46.1074C39.2408 46.7684 39.9007 47.4294 40.7073 47.8259C41.6605 48.2886 43.127 47.9581 44.0802 46.9006C44.8867 46.0413 43.9335 45.5125 43.4936 45.0499C42.8337 44.3889 42.687 43.794 42.7603 43.0009C42.8337 40.2909 42.1738 37.7131 39.974 35.6641C39.1675 34.9371 38.9475 34.2761 39.4608 33.3507C39.6074 33.0202 39.6807 32.6898 39.8274 32.3593C41.2205 28.4596 42.687 24.626 44.0802 20.7262C44.5201 19.5365 44.3735 19.4043 43.0537 19.4043C42.4671 19.4043 41.8805 19.3382 41.2939 19.4704C37.5544 20.0653 33.8148 20.1314 30.0753 20.5279C24.9427 20.9906 19.7367 20.8584 14.604 20.3297C13.3575 20.1975 12.111 20.1975 10.7912 20.0653C8.66477 19.867 6.46504 19.6026 4.77859 19.4043Z" fill="#3858A4"/>
<path d="M31.0284 15.0418C26.9223 15.0418 24.576 12.2658 25.4559 8.69653C26.629 3.93756 30.2219 1.35978 35.1346 0.17004C38.6542 -0.689219 41.5871 1.82246 41.8804 5.1273C42.1737 8.49824 38.3609 12.8606 34.988 14.1165C33.5948 14.5792 32.3483 15.3062 31.0284 15.0418ZM39.754 5.39169C39.754 3.54097 39.0941 2.41734 37.7743 2.21905C36.3811 2.02076 34.9146 1.95466 33.5215 2.54953C30.2952 4.00366 28.0955 6.11875 27.4356 9.4236C26.9223 12.0014 29.122 13.9182 31.9083 13.3233C33.5215 12.9928 34.8413 12.3319 36.0145 11.4726C38.1409 9.95238 39.6807 8.03556 39.754 5.39169Z" fill="#3858A4"/>
<path d="M11.5978 8.43207C8.22493 8.03549 6.17186 11.4725 7.05174 14.1825C7.19839 14.513 7.27172 14.8435 7.41836 15.1739C8.00495 16.0993 7.05178 16.0993 6.53851 16.3637C5.80527 16.7603 5.73193 16.2315 5.51196 15.7688C4.85205 14.0503 4.55876 12.3318 5.292 10.4811C6.39186 7.8372 9.10484 6.51525 12.2578 6.71355C15.3374 6.91184 17.8304 8.03549 20.0301 9.62181C22.4498 11.2742 23.9896 13.5876 24.8695 16.2976C25.0161 16.7603 24.5762 16.8925 24.2095 17.0247C23.6963 17.2229 23.2563 17.2229 23.1097 16.6942C22.5964 14.9096 21.4233 13.3893 20.1034 12.1335C18.417 10.4811 16.4372 9.15913 13.9442 8.76255C13.1376 8.49816 12.2577 8.16768 11.5978 8.43207Z" fill="#3858A4"/>
<path d="M19.15 13.1911C19.15 13.5876 18.93 13.852 18.6367 14.0503C17.4636 15.0418 16.3637 16.0993 15.1905 17.1569C14.6772 17.6195 14.164 17.8839 13.5774 17.3552C12.9175 16.7603 13.2841 16.2976 13.7973 15.8349C14.9705 14.7774 16.1437 13.7198 17.3169 12.6623C17.6835 12.3318 18.0501 12.1335 18.5634 12.3318C19.0033 12.5301 19.15 12.7945 19.15 13.1911Z" fill="#3858A4"/>
<path d="M13.7974 10.415C14.824 10.415 15.1173 10.9438 14.604 11.6048C13.5042 12.9928 12.111 14.1165 10.7178 15.174C10.4245 15.4384 9.83796 15.7028 9.47134 15.3062C9.17805 14.9757 8.88474 14.4469 9.32468 14.0504C10.5712 12.8606 11.891 11.737 13.2108 10.5472C13.3575 10.4811 13.6508 10.4811 13.7974 10.415Z" fill="#3858A4"/>
<path d="M23.8428 37.779C20.7632 37.779 18.1969 37.4485 15.7772 36.391C15.1906 36.1266 14.5307 35.8622 14.0174 35.4656C9.39802 32.4252 9.69133 28.7238 14.1641 25.9477C17.4637 23.8987 21.2765 23.5021 25.236 23.8987C27.5824 24.097 29.7821 24.4275 31.7618 25.485C34.1815 26.6748 36.0146 28.2611 35.868 31.0371C35.7947 32.7557 34.7681 34.0115 33.3749 35.003C30.5153 37.1181 26.9958 37.7129 23.8428 37.779ZM22.6697 35.9283C23.7695 36.0605 24.7961 35.7961 25.8226 35.73C28.0223 35.5978 30.0754 35.003 31.9085 33.8132C34.6948 32.0286 34.6948 29.3847 31.8352 27.6001C27.3624 24.824 19.4434 24.9562 15.3373 27.4679C11.8911 29.583 11.9644 31.8303 15.3373 33.9454C17.4637 35.3995 20.03 35.8622 22.6697 35.9283Z" fill="#3858A4"/>
<path d="M17.6835 43.3312C14.3106 43.3312 10.9378 43.3312 7.49153 43.3312C6.68497 43.3312 6.53833 43.0668 6.53833 42.4058C6.53833 41.7449 6.68497 41.4805 7.49153 41.4805C14.384 41.4805 21.2031 41.5466 28.0955 41.4805C28.9754 41.4805 29.0487 41.7449 29.0487 42.4058C29.0487 43.0668 28.9021 43.3312 28.0955 43.3312C24.6493 43.3312 21.1297 43.3312 17.6835 43.3312Z" fill="#3858A4"/>
<path d="M36.0878 41.5466C36.6011 41.5466 37.1877 41.6127 37.701 41.5466C38.8008 41.4144 39.0941 41.877 38.9475 42.7363C38.8741 43.1329 38.8008 43.3312 38.2876 43.3312C36.8211 43.3312 35.3546 43.3312 33.8881 43.3312C33.1549 43.3312 33.0815 43.0007 33.0815 42.4719C33.0815 41.9431 33.0816 41.4805 33.8881 41.4805C34.6214 41.5466 35.3546 41.5466 36.0878 41.5466Z" fill="#3858A4"/>
<path d="M35.7213 10.4812C35.2813 10.4812 34.988 10.2829 34.6947 10.0185C33.4482 8.89487 32.2017 7.77122 30.9552 6.58148C30.4419 6.1188 30.222 5.59003 30.8085 5.12735C31.3218 4.66468 31.9084 4.86297 32.3483 5.32565C33.7415 6.58149 35.0613 7.83732 36.3811 9.09316C36.6744 9.35755 36.6745 9.62194 36.6012 9.88632C36.3812 10.2829 36.0879 10.4812 35.7213 10.4812Z" fill="#3858A4"/>
<path d="M29.0487 8.49818C29.0487 7.70501 29.6353 7.37453 30.3686 7.83721C31.4684 8.56427 32.5683 9.35743 33.4481 10.2828C33.8148 10.6133 33.8881 11.2081 33.4481 11.4064C33.0815 11.6047 32.5683 12.1335 31.9084 11.4725C31.1751 10.6794 30.2952 9.9523 29.4153 9.22523C29.122 9.02694 28.9754 8.82866 29.0487 8.49818Z" fill="#3858A4"/>
<path d="M37.261 7.70512C36.8944 7.70512 36.6011 7.57294 36.3811 7.30855C35.5745 6.58148 34.768 5.85442 33.9614 5.12735C33.5215 4.66467 33.3015 4.20199 33.8147 3.73931C34.328 3.27663 34.9146 3.40884 35.3546 3.87151C36.1611 4.59858 37.041 5.39174 37.8476 6.1188C38.2142 6.44929 38.2875 6.77978 38.1409 7.17636C37.9942 7.50684 37.7009 7.70512 37.261 7.70512Z" fill="#3858A4"/>
</svg>
