<svg width="71" height="76" viewBox="0 0 71 76" fill="none" xmlns="http://www.w3.org/2000/svg">
<path d="M70.3967 31.5985C70.3967 35.7985 65.6967 40.5985 59.2967 40.7985C58.3967 40.7985 57.8967 40.5985 58.1967 42.0985C58.6967 45.1985 58.4967 48.4985 56.0967 51.0985C55.5967 51.5985 55.4967 52.0985 55.4967 52.7985C55.3967 55.9985 54.1967 58.4985 50.9967 59.6985C50.2967 59.9985 50.1967 60.3985 49.9967 60.9985C48.6967 67.2985 41.9967 67.4985 38.8967 64.0985C37.6967 62.7985 36.2967 63.0985 34.9967 63.7985C33.6967 64.4985 32.7967 65.5985 31.7967 66.6985C29.2967 69.3985 26.4967 71.6985 22.4967 71.6985C21.9967 71.6985 21.6967 72.0985 21.2967 72.3985C19.4967 73.7985 17.7967 75.0985 15.3967 75.3985C14.1967 75.4985 13.1967 75.2985 12.0967 74.9985C8.19666 73.7985 5.59666 71.2985 4.29666 67.4985C4.19666 67.1985 4.09666 66.7985 4.19666 66.4985C4.59666 64.5985 3.89666 63.2985 2.79666 61.6985C0.59666 58.4985 0.596661 54.8985 1.69666 51.1985C3.79666 44.2985 7.59666 38.3985 11.3967 32.4985C14.2967 27.9985 15.7967 23.0985 15.5967 17.6985C15.4967 14.7985 14.9967 11.9985 13.7967 9.29849C12.2967 5.59849 15.5967 0.498493 19.4967 0.398493C20.7967 0.398493 22.0967 0.298493 23.0967 1.09849C23.4967 1.39849 23.8967 1.39849 24.3967 1.09849C28.2967 -1.00151 31.7967 0.0984926 34.9967 2.79849C35.8967 3.49849 36.3967 3.69849 37.2967 2.89849C39.9967 0.398493 46.6967 0.698493 49.9967 4.19849C51.2967 5.59849 52.4967 7.09849 53.1967 8.89849C53.4967 9.59849 53.8967 9.89849 54.6967 10.0985C58.1967 10.9985 60.7967 13.0985 62.2967 16.3985C62.5967 17.1985 63.0967 17.5985 63.7967 17.8985C68.0967 20.5985 70.5967 24.1985 70.3967 31.5985ZM26.0967 67.4985C26.2967 67.3985 26.4967 67.3985 26.3967 67.0985C26.7967 67.3985 27.0967 67.4985 27.2967 66.8985C28.1967 66.5985 28.7967 65.7985 29.2967 65.0985C30.6967 63.3985 32.2967 61.6985 34.4967 60.9985C36.6967 60.2985 38.8967 60.0985 40.6967 62.0985C41.8967 63.4985 43.5967 63.6985 45.0967 63.1985C46.6967 62.6985 47.2967 61.0985 47.2967 59.5985C47.2967 58.0985 47.8967 57.4985 49.1967 57.2985C50.2967 57.0985 51.1967 56.4985 51.7967 55.4985C51.9967 55.1985 52.2967 54.7985 51.9967 54.3985C51.7967 54.1985 51.2967 54.1985 50.9967 54.2985C49.4967 55.1985 47.7967 54.8985 46.0967 54.8985C45.6967 54.8985 45.2967 54.7985 44.9967 55.1985C42.3967 58.3985 39.0967 58.0985 35.6967 57.1985C34.8967 56.9985 34.6967 57.3985 34.2967 57.7985C31.8967 60.6985 29.3967 63.5985 26.8967 66.4985C26.6967 66.5985 26.3967 66.7985 26.1967 66.8985C26.4967 67.3985 26.4967 67.4985 26.0967 67.4985ZM32.1967 39.7985C32.1967 39.1985 32.1967 38.4985 32.1967 37.8985C32.0967 36.8985 32.5967 36.2985 33.5967 36.2985C34.4967 36.2985 34.8967 36.8985 34.9967 37.6985C35.0967 39.5985 35.2967 41.4985 35.2967 43.3985C35.1967 46.4985 34.2967 49.3985 31.8967 51.5985C30.5967 52.7985 28.9967 53.7985 27.3967 54.3985C23.8967 55.7985 20.2967 56.8985 16.7967 58.0985C14.1967 58.8985 11.5967 59.6985 9.49666 61.5985C7.99666 62.9985 6.39666 64.5985 6.99666 66.7985C7.99666 70.7985 13.8967 74.7985 18.2967 71.2985C19.8967 69.9985 21.4967 68.5985 22.8967 67.0985C27.8967 61.9985 32.4967 56.5985 36.5967 50.6985C37.1967 49.8985 37.7967 49.3985 38.6967 49.9985C39.4967 50.5985 39.3967 51.3985 38.8967 52.0985C38.4967 52.5985 38.1967 53.1985 37.7967 53.6985C36.6967 54.9985 37.9967 55.2985 38.5967 55.1985C40.4967 54.8985 42.4967 54.8985 43.5967 52.8985C43.9967 52.1985 44.6967 51.7985 45.2967 52.1985C46.5967 52.7985 47.8967 52.3985 49.0967 52.0985C55.1967 50.5985 56.5967 45.4985 54.8967 40.2985C54.5967 39.4985 54.0967 38.7985 54.5967 37.9985C55.2967 37.0985 56.1967 37.4985 56.9967 37.6985C61.5967 38.5985 66.2967 36.1985 67.3967 31.8985C68.5967 27.2985 67.3967 22.8985 62.2967 20.4985C60.8967 19.7985 60.1967 19.0985 59.5967 17.6985C57.1967 12.0985 49.3967 10.5985 45.6967 15.1985C44.6967 16.3985 43.6967 16.7985 42.2967 16.6985C41.6967 16.6985 41.0967 16.6985 40.5967 16.6985C35.1967 16.7985 30.8967 22.0985 32.2967 27.2985C32.6967 28.9985 32.1967 29.3985 30.7967 29.8985C25.6967 31.5985 23.5967 37.4985 27.0967 41.5985C28.7967 43.5985 29.6967 45.4985 29.4967 47.9985C29.4967 48.2985 29.1967 48.8985 29.8967 48.9985C30.2967 49.0985 30.6967 48.7985 30.8967 48.4985C31.6967 47.3985 32.2967 46.2985 32.2967 44.8985C32.1967 43.2985 32.1967 41.4985 32.1967 39.7985ZM12.3967 35.9985C14.2967 35.8985 15.7967 36.0985 17.1967 36.6985C18.0967 37.0985 18.9967 37.5985 18.5967 38.6985C18.1967 39.8985 17.1967 39.6985 16.2967 39.2985C12.0967 37.7985 10.0967 39.5985 8.39666 42.5985C6.39666 46.0985 4.69666 49.7985 3.89666 53.7985C3.39666 56.0985 3.69666 58.4985 5.09666 60.5985C5.59666 61.3985 5.99666 61.4985 6.59666 60.6985C7.69666 59.2985 9.19666 58.3985 10.7967 57.5985C11.3967 57.2985 11.8967 57.0985 12.2967 56.4985C13.8967 53.9985 15.8967 51.8985 18.1967 49.9985C19.3967 48.9985 19.8967 47.6985 19.2967 46.2985C18.6967 44.8985 19.3967 44.4985 20.3967 43.9985C22.2967 43.1985 23.1967 41.5985 22.8967 39.4985C22.1967 34.4985 24.1967 30.3985 28.4967 27.9985C29.1967 27.5985 29.4967 27.1985 29.3967 26.3985C29.1967 24.0985 29.7967 21.8985 30.8967 19.8985C31.1967 19.2985 31.1967 18.6985 31.0967 18.0985C30.3967 15.3985 29.1967 12.8985 26.7967 11.3985C24.4967 10.1985 22.9967 8.79849 23.1967 6.09849C23.1967 5.69849 22.8967 5.19849 22.6967 4.79849C22.0967 3.39849 19.2967 2.59849 18.0967 3.49849C16.5967 4.69849 15.6967 6.99849 16.3967 8.99849C18.0967 13.5985 18.7967 18.2985 17.5967 23.1985C17.3967 23.9985 17.4967 24.2985 18.3967 23.9985C20.4967 23.1985 22.5967 23.4985 24.6967 23.4985C25.5967 23.4985 26.0967 23.7985 26.0967 24.7985C26.0967 25.7985 25.5967 26.2985 24.5967 26.2985C23.3967 26.2985 22.2967 26.2985 21.0967 26.2985C19.0967 26.3985 17.2967 27.0985 16.2967 28.8985C15.1967 31.0985 14.0967 33.4985 12.3967 35.9985ZM41.2967 13.9985C41.9967 13.7985 42.8967 14.4985 43.5967 13.5985C45.0967 11.6985 47.0967 10.5985 49.4967 10.1985C50.0967 10.0985 50.4967 9.89849 50.0967 9.19849C47.8967 4.69849 40.9967 1.49849 37.3967 6.79849C36.5967 7.99849 35.6967 7.79849 34.7967 6.79849C33.7967 5.59849 32.7967 4.59849 31.3967 3.79849C29.7967 2.89849 28.1967 2.59849 26.3967 3.29849C26.0967 3.39849 25.6967 3.59849 25.5967 3.89849C25.2967 4.29849 26.5967 7.99849 27.0967 8.29849C29.8967 10.0985 31.9967 12.4985 33.1967 15.5985C33.4967 16.4985 33.7967 16.5985 34.5967 16.0985C36.4967 14.6985 38.6967 13.9985 41.2967 13.9985ZM16.6967 55.1985C20.2967 54.1985 23.3967 53.0985 26.4967 51.7985C26.9967 51.5985 27.5967 51.3985 27.2967 50.5985C26.6967 49.0985 26.5967 47.5985 26.4967 45.9985C26.3967 44.9985 25.5967 44.2985 24.5967 43.8985C24.0967 45.2985 21.9967 45.4985 21.9967 47.4985C22.0967 49.4985 21.0967 50.9985 19.5967 52.2985C18.7967 53.0985 17.7967 53.8985 16.6967 55.1985Z" fill="white"/>
<path d="M58.7967 30.7985C54.7967 30.3985 51.9967 32.1985 49.7967 35.1985C48.6967 36.7985 47.4967 38.3985 46.1967 39.7985C45.4967 40.5985 45.8967 40.6985 46.5967 40.7985C47.5967 40.7985 48.4967 40.7985 49.4967 41.0985C50.4967 41.3985 50.5967 42.0985 50.4967 42.9985C50.2967 43.8985 49.4967 44.0985 48.8967 43.8985C45.1967 42.7985 42.6967 44.7985 40.3967 47.0985C40.2967 47.1985 40.2967 47.2985 40.1967 47.3985C39.5967 47.8985 38.6967 48.3985 38.0967 47.8985C37.2967 47.1985 37.4967 46.2985 38.1967 45.4985C39.3967 44.0985 40.5967 42.6985 41.6967 41.1985C43.6967 38.7985 43.7967 36.8985 41.9967 34.3985C41.5967 33.7985 41.0967 33.2985 40.6967 32.7985C40.1967 32.1985 40.1967 31.4985 40.7967 30.8985C41.4967 30.2985 42.1967 30.3985 42.7967 30.9985C43.7967 32.0985 44.6967 33.1985 45.1967 34.5985C45.5967 35.6985 45.9967 35.5985 46.6967 34.7985C48.5967 32.4985 48.4967 28.0985 46.4967 25.5985C46.0967 25.0985 45.5967 24.6985 45.7967 23.9985C45.9967 22.7985 47.1967 22.4985 48.1967 23.3985C49.7967 24.8985 50.5967 26.7985 50.7967 28.8985C50.8967 29.7985 51.0967 30.0985 51.8967 29.5985C54.4967 27.8985 57.4967 28.0985 60.3967 28.1985C61.2967 28.1985 62.0967 28.6985 62.0967 29.7985C61.9967 30.7985 61.2967 31.0985 60.2967 30.9985C59.8967 30.7985 59.2967 30.7985 58.7967 30.7985Z" fill="white"/>
</svg>
